<svg width="135" height="168" viewBox="0 0 135 168" fill="none" xmlns="http://www.w3.org/2000/svg">
<path d="M84.3176 15.4394C85.1567 18.2503 89.484 23.5126 89.8257 27.3425C90.1673 31.1723 82.7893 37.2977 82.7893 37.2977C82.7893 37.2977 77.2753 18.8617 80.7275 16.71C84.1798 14.5583 84.3176 15.4394 84.3176 15.4394Z" fill="#263238"/>
<path d="M69.1659 35.3558C67.8593 36.4466 66.5767 37.3636 65.2402 38.3046C63.9036 39.2455 62.5251 40.1026 61.1226 40.9058C59.715 41.7386 58.2646 42.4968 56.7773 43.1773C56.0222 43.5189 55.273 43.8545 54.4938 44.1482C54.1102 44.3041 53.7206 44.4539 53.3251 44.5858L52.1264 45.0053C51.1014 45.2919 50.0293 45.3693 48.9738 45.2331C48.0915 45.1299 47.2181 44.9616 46.3606 44.7296C44.7623 44.2873 43.198 43.7305 41.6797 43.0634C38.7324 41.7766 35.889 40.2637 33.1749 38.5383L34.2957 36.4526C35.7102 37.0519 37.1606 37.6513 38.599 38.1727C40.0375 38.6941 41.4879 39.2456 42.9383 39.6951C44.3524 40.1585 45.7935 40.5348 47.2537 40.8218C47.9241 40.9529 48.6031 41.035 49.2855 41.0676C49.7942 41.107 50.3059 41.0542 50.7958 40.9117C52.1633 40.3886 53.5 39.7882 54.7995 39.1137C55.4647 38.7661 56.124 38.4125 56.7713 38.0289C57.4186 37.6453 58.0779 37.2737 58.7192 36.8781C60.0078 36.081 61.2665 35.2359 62.5131 34.3668C63.7598 33.4978 65.0004 32.5688 66.1092 31.6877L69.1659 35.3558Z" fill="#E58A7B"/>
<path d="M72.3304 28.9727C70.844 27.8099 64.6946 31.6158 62.8307 33.2041L64.1912 41.4332C64.1912 41.4332 73.0316 37.7292 73.559 35.1999C74.1164 32.5568 73.4392 29.8597 72.3304 28.9727Z" fill="#FA541C"/>
<path d="M93.014 53.8758L74.3503 57.5138C64.7067 31.4001 66.8045 30.5431 66.8045 30.5431C68.1608 29.7978 69.5619 29.1372 70.9999 28.5652L71.2516 28.4693C72.4503 28.0318 72.6901 27.9659 74.2844 27.4984C77.0294 26.8451 79.5886 26.2997 82.7592 25.8502L83.3585 25.7662C83.9579 25.6943 84.5033 25.6344 85.0547 25.5805C85.4263 25.5385 85.7979 25.5145 86.1515 25.4906L87.3502 25.4246C89.4 25.3227 90.8684 25.3527 90.8684 25.3527C90.299 41.661 91.222 46.3419 93.014 53.8758Z" fill="#FA541C"/>
<path d="M78.3959 17.3153C77.1972 19.2992 81.5425 20.2162 84.1137 18.1844C86.1694 16.5542 85.684 12.7902 83.9219 11.9152C82.1598 11.0401 78.3959 17.3153 78.3959 17.3153Z" fill="#FA541C"/>
<path opacity="0.4" d="M78.3959 17.3153C77.1972 19.2992 81.5425 20.2162 84.1137 18.1844C86.1694 16.5542 85.684 12.7902 83.9219 11.9152C82.1598 11.0401 78.3959 17.3153 78.3959 17.3153Z" fill="black"/>
<path d="M96.5621 161.963L91.8931 162.31L90.185 151.564L94.8539 151.216L96.5621 161.963Z" fill="#E58A7B"/>
<path d="M129.586 146.943L125.625 149.436L118.57 141.069L122.532 138.57L129.586 146.943Z" fill="#E58A7B"/>
<path d="M90.185 151.564L91.132 157.533L95.735 156.76L94.8599 151.222L90.185 151.564Z" fill="#CF6F64"/>
<path d="M122.538 138.576L118.57 141.069L121.495 144.533L125.547 142.142L122.538 138.576Z" fill="#CF6F64"/>
<path d="M74.6379 57.5137C74.6379 57.5137 74.572 94.5656 77.5987 108.518C80.7513 123.035 90.0232 156.059 90.0232 156.059L96.7479 155.19C96.7479 155.19 91.4916 121.83 89.2501 107.404C86.8107 91.6827 88.3091 54.8526 88.3091 54.8526L74.6379 57.5137Z" fill="#263238"/>
<path opacity="0.5" d="M87.8895 71.2749L84.5931 67.9904C84.7189 82.225 85.5161 89.2554 88.2551 96.9151C87.8236 88.8178 87.7876 79.2402 87.8895 71.2749Z" fill="black"/>
<path d="M79.277 56.5548C79.277 56.5548 89.3281 87.1756 94.3147 104.814C99.577 123.424 119.751 144.006 119.751 144.006L125.541 140.662C125.541 140.662 111.756 121.123 106.685 103.76C96.3764 68.5118 100.614 61.044 93.0081 53.8757L79.277 56.5548Z" fill="#263238"/>
<path d="M71.3776 6.50307C74.0507 7.3961 76.478 14.0309 76.5799 16.6441C76.6818 19.2572 68.8363 22.8593 68.8363 22.8593C68.8363 22.8593 65.3781 14.4684 66.343 9.07428C66.7626 6.73083 71.3776 6.50307 71.3776 6.50307Z" fill="#263238"/>
<path d="M34.6913 36.6743L31.5207 33.222L30.4838 37.5493C30.4838 37.5493 32.7374 39.5392 34.5594 38.8559L34.6913 36.6743Z" fill="#E58A7B"/>
<path d="M28.3082 32.2331L26.0906 33.9952L30.4838 37.5494L31.5207 33.2221L28.3082 32.2331Z" fill="#E58A7B"/>
<path d="M124.384 148.543L128.088 144.809C128.152 144.745 128.237 144.707 128.327 144.7C128.417 144.693 128.507 144.719 128.58 144.773L131.954 147.278C132.037 147.344 132.106 147.426 132.155 147.521C132.205 147.615 132.233 147.718 132.239 147.824C132.246 147.93 132.229 148.036 132.191 148.135C132.154 148.234 132.095 148.324 132.02 148.399C130.701 149.676 130.006 150.227 128.376 151.869C127.375 152.882 126.014 154.459 124.63 155.855C123.245 157.252 121.789 155.951 122.232 155.256C124.252 152.097 123.893 150.916 124.03 149.31C124.051 149.02 124.177 148.747 124.384 148.543Z" fill="#263238"/>
<path d="M91.5815 161.639H96.8438C96.9363 161.639 97.026 161.671 97.0972 161.73C97.1684 161.789 97.2166 161.871 97.2334 161.962L98.0605 166.122C98.079 166.224 98.0747 166.329 98.048 166.43C98.0212 166.53 97.9726 166.624 97.9056 166.703C97.8387 166.783 97.755 166.847 97.6605 166.89C97.5661 166.934 97.4632 166.956 97.3593 166.955C95.5192 166.925 94.6322 166.817 92.3187 166.817C90.8983 166.817 87.9614 166.961 85.9956 166.961C84.0297 166.961 83.8199 165.019 84.6291 164.845C88.2252 164.054 89.6336 162.969 90.8143 161.927C91.0283 161.743 91.2999 161.642 91.5815 161.639Z" fill="#263238"/>
<path d="M134.32 167.238L117.654 167.353L100.99 167.395L67.66 167.472L34.33 167.395L17.6664 167.353L1 167.238L17.6664 167.119L34.33 167.076L67.66 167L100.99 167.076L117.654 167.119L134.32 167.238Z" fill="#263238"/>
<g style="mix-blend-mode:multiply" opacity="0.27">
<path d="M91.4737 34.8043L88.5968 36.5184L91.9172 49.0029C91.192 45.221 91.5156 41.0675 91.4737 34.8043Z" fill="#FA541C"/>
</g>
<path d="M75.1234 15.3135C77.1672 17.0217 80.134 19.509 83.6282 16.6021C86.6249 14.0968 88.7227 7.52196 83.3465 7.28222C80.5355 7.15636 75.1234 15.3135 75.1234 15.3135Z" fill="#263238"/>
<path d="M80.062 16.4822C80.062 19.3112 80.4996 24.4116 82.7591 25.862C82.7591 25.862 82.5553 28.7749 77.4848 29.7578C71.9169 30.8426 74.2843 27.5103 74.2843 27.5103C77.1852 26.1917 76.6817 23.9501 75.7228 21.9363L80.062 16.4822Z" fill="#E58A7B"/>
<path d="M78.2941 18.7058L75.7289 21.9363C75.9536 22.4032 76.1381 22.8884 76.2803 23.3867C77.4071 22.9912 78.7556 21.4089 78.6417 20.1682C78.6171 19.6635 78.4992 19.1676 78.2941 18.7058Z" fill="#CF6F64"/>
<path d="M80.3319 9.98535C80.9313 14.5944 81.2969 16.5303 79.4509 19.3172C76.6759 23.5127 70.8862 23.243 68.9143 18.9097C67.1163 15.0079 66.445 8.12137 70.5446 5.45426C71.446 4.85752 72.4851 4.50139 73.5631 4.41975C74.6411 4.33811 75.722 4.53367 76.703 4.98784C77.684 5.44201 78.5325 6.13966 79.1677 7.01442C79.8029 7.88917 80.2037 8.91193 80.3319 9.98535Z" fill="#E58A7B"/>
<path d="M72.3247 1.91206C69.2081 4.12366 75.4593 4.77695 75.4653 7.98348C75.4653 9.30804 77.6409 13.5095 80.7336 13.2697L83.7303 7.94752C86.8829 2.85304 79.433 -3.14047 72.3247 1.91206Z" fill="#263238"/>
<path d="M72.3245 1.91206C66.8405 1.62437 64.449 5.98765 65.0784 9.9074C68.9041 8.95352 72.8614 8.63961 76.7897 8.9784C84.3055 9.74557 72.3245 1.91206 72.3245 1.91206Z" fill="#263238"/>
<path d="M81.83 13.9591C81.906 14.8537 81.6236 15.7419 81.0449 16.4284C80.2717 17.3334 79.2468 16.8 78.8872 15.7272C78.5816 14.7562 78.6175 13.12 79.6604 12.6046C79.8908 12.498 80.1441 12.4505 80.3974 12.4663C80.6507 12.4822 80.8961 12.5608 81.1114 12.6953C81.3267 12.8297 81.5052 13.0156 81.6306 13.2363C81.7561 13.4569 81.8246 13.7053 81.83 13.9591Z" fill="#E58A7B"/>
<path d="M73.673 12.6044C73.7449 12.976 73.6071 13.3117 73.3673 13.3596C73.1276 13.4076 72.8699 13.1438 72.7979 12.7603C72.726 12.3767 72.8639 12.047 73.1036 11.9991C73.3434 11.9511 73.6011 12.2328 73.673 12.6044Z" fill="#263238"/>
<path d="M69.4835 13.4197C69.5555 13.7913 69.4176 14.1329 69.1779 14.1809C68.9381 14.2288 68.6804 13.9651 68.6085 13.5815C68.5366 13.1979 68.6744 12.8683 68.9142 12.8263C69.1539 12.7844 69.4116 13.0421 69.4835 13.4197Z" fill="#263238"/>
<path d="M69.0281 12.8323L68.0871 12.7544C68.0871 12.7544 68.6805 13.3597 69.0281 12.8323Z" fill="#263238"/>
<path d="M70.718 13.8452C70.5497 14.7531 70.2593 15.6341 69.855 16.4643C70.0699 16.5645 70.3041 16.6164 70.5412 16.6164C70.7784 16.6164 71.0126 16.5645 71.2275 16.4643L70.718 13.8452Z" fill="#DF5753"/>
<path d="M72.7919 17.663C72.7661 17.6633 72.7411 17.6545 72.7213 17.638C72.7015 17.6215 72.6883 17.5985 72.684 17.5731C72.6814 17.5589 72.6817 17.5443 72.6849 17.5302C72.688 17.5162 72.694 17.5029 72.7024 17.4911C72.7107 17.4794 72.7214 17.4695 72.7337 17.4619C72.746 17.4544 72.7596 17.4494 72.7739 17.4472C73.2371 17.3666 73.6749 17.1781 74.0518 16.897C74.4287 16.6159 74.7342 16.25 74.9435 15.8289C74.949 15.8156 74.9571 15.8034 74.9673 15.7932C74.9775 15.7829 74.9897 15.7748 75.003 15.7692C75.0164 15.7636 75.0307 15.7607 75.0452 15.7607C75.0597 15.7607 75.074 15.7635 75.0874 15.769C75.1008 15.7745 75.1129 15.7826 75.1232 15.7928C75.1334 15.803 75.1416 15.8152 75.1471 15.8285C75.1527 15.8419 75.1556 15.8562 75.1556 15.8707C75.1556 15.8851 75.1528 15.8995 75.1473 15.9129C74.9279 16.3704 74.6014 16.7683 74.1956 17.073C73.7897 17.3776 73.3165 17.58 72.8158 17.663H72.7919Z" fill="#263238"/>
<path d="M74.638 11.0103C74.5832 11.0109 74.53 10.9917 74.4881 10.9563C74.2865 10.7647 74.0424 10.6235 73.7757 10.5443C73.509 10.4651 73.2274 10.4502 72.9538 10.5008C72.8934 10.5159 72.8295 10.5064 72.7761 10.4744C72.7227 10.4423 72.6842 10.3904 72.6691 10.33C72.654 10.2696 72.6635 10.2057 72.6956 10.1523C72.7276 10.0989 72.7795 10.0604 72.8399 10.0453C73.1856 9.97728 73.5424 9.99234 73.8811 10.0893C74.2197 10.1862 74.5305 10.3621 74.7878 10.6027C74.8288 10.6442 74.8518 10.7002 74.8518 10.7585C74.8518 10.8169 74.8288 10.8728 74.7878 10.9144C74.7711 10.9401 74.7491 10.9619 74.7232 10.9785C74.6974 10.995 74.6683 11.0058 74.638 11.0103Z" fill="#263238"/>
<path d="M67.164 11.8433C67.1364 11.8495 67.1077 11.8495 67.0801 11.8433C67.0527 11.8322 67.0278 11.8157 67.0069 11.7948C66.986 11.7739 66.9695 11.7491 66.9583 11.7217C66.9472 11.6944 66.9416 11.6651 66.9419 11.6355C66.9422 11.606 66.9485 11.5768 66.9602 11.5497C67.0877 11.2219 67.2919 10.9294 67.5558 10.6969C67.8196 10.4643 68.1354 10.2984 68.4766 10.2131C68.5054 10.2071 68.5351 10.207 68.564 10.2129C68.5928 10.2188 68.6201 10.2305 68.6443 10.2473C68.6684 10.2642 68.6889 10.2858 68.7043 10.3108C68.7198 10.3359 68.73 10.3638 68.7343 10.3929C68.7404 10.4213 68.7407 10.4506 68.7351 10.4791C68.7296 10.5076 68.7184 10.5347 68.7022 10.5587C68.686 10.5828 68.665 10.6033 68.6407 10.6191C68.6163 10.6349 68.5891 10.6456 68.5605 10.6506C68.2911 10.7241 68.0425 10.8593 67.8345 11.0455C67.6264 11.2317 67.4646 11.4639 67.3618 11.7235C67.3425 11.7593 67.314 11.7893 67.2792 11.8104C67.2445 11.8315 67.2047 11.8428 67.164 11.8433Z" fill="#263238"/>
<path d="M122.994 150.719C122.891 150.716 122.79 150.688 122.701 150.638C122.611 150.588 122.535 150.517 122.478 150.431C122.436 150.38 122.407 150.319 122.396 150.254C122.384 150.189 122.39 150.122 122.412 150.059C122.622 149.496 124.276 149.136 124.462 149.094C124.484 149.091 124.506 149.093 124.526 149.102C124.546 149.11 124.564 149.124 124.576 149.142C124.589 149.16 124.596 149.181 124.596 149.202C124.596 149.224 124.589 149.245 124.576 149.262C124.252 149.796 123.617 150.689 123.024 150.719H122.994ZM124.246 149.37C123.593 149.538 122.73 149.838 122.622 150.137C122.612 150.165 122.609 150.195 122.616 150.224C122.622 150.252 122.637 150.279 122.658 150.299C122.695 150.361 122.748 150.412 122.811 150.447C122.874 150.481 122.946 150.499 123.018 150.497C123.335 150.479 123.785 150.065 124.246 149.37Z" fill="#FA541C"/>
<path d="M123.976 149.37C123.377 149.37 122.628 149.22 122.406 148.897C122.357 148.823 122.334 148.735 122.342 148.647C122.349 148.558 122.387 148.475 122.448 148.411C122.501 148.344 122.567 148.289 122.642 148.25C122.718 148.211 122.801 148.188 122.886 148.183H122.933C123.605 148.183 124.528 149.088 124.564 149.124C124.578 149.138 124.589 149.155 124.594 149.174C124.599 149.193 124.599 149.213 124.594 149.232C124.588 149.251 124.578 149.268 124.565 149.281C124.551 149.295 124.534 149.305 124.516 149.31C124.339 149.353 124.158 149.373 123.976 149.37ZM122.933 148.405H122.898C122.844 148.407 122.791 148.421 122.743 148.446C122.696 148.471 122.654 148.506 122.622 148.549C122.538 148.663 122.562 148.729 122.592 148.771C122.772 149.046 123.689 149.202 124.252 149.136C123.893 148.77 123.435 148.516 122.933 148.405Z" fill="#FA541C"/>
<path d="M89.8612 162.46C89.4581 162.496 89.0548 162.394 88.7165 162.172C88.6365 162.11 88.5736 162.028 88.5338 161.935C88.4939 161.842 88.4784 161.74 88.4887 161.639C88.4883 161.579 88.5036 161.519 88.533 161.467C88.5624 161.414 88.605 161.37 88.6565 161.339C89.2079 161.016 91.1379 161.974 91.3536 162.082C91.3739 162.093 91.3905 162.11 91.4012 162.13C91.4119 162.15 91.4162 162.173 91.4135 162.196C91.4107 162.219 91.4012 162.24 91.3863 162.257C91.3713 162.274 91.3516 162.286 91.3296 162.292C90.8464 162.393 90.3548 162.45 89.8612 162.46ZM88.9742 161.489C88.9037 161.485 88.8334 161.499 88.7704 161.531C88.7501 161.542 88.7335 161.558 88.7228 161.579C88.7121 161.599 88.7078 161.622 88.7105 161.645C88.7045 161.712 88.715 161.78 88.7411 161.843C88.7672 161.906 88.8081 161.961 88.8603 162.004C89.16 162.262 89.9332 162.304 90.952 162.136C90.3334 161.812 89.6649 161.593 88.9742 161.489Z" fill="#FA541C"/>
<path d="M91.306 162.28H91.264C90.6646 162.022 89.5079 161.004 89.5918 160.482C89.5918 160.362 89.6997 160.206 89.9994 160.176H90.0893C91.1321 160.176 91.4018 162.082 91.4138 162.166C91.4165 162.186 91.4141 162.207 91.4068 162.226C91.3994 162.244 91.3874 162.261 91.3719 162.274C91.3509 162.282 91.3281 162.284 91.306 162.28ZM90.1073 160.386H90.0413C89.8495 160.386 89.8375 160.476 89.8375 160.5C89.7896 160.818 90.5807 161.615 91.1801 161.969C91.0602 161.501 90.7545 160.398 90.0833 160.398L90.1073 160.386Z" fill="#FA541C"/>
<path d="M73.2175 12.017L72.2766 11.9331C72.2766 11.9331 72.8699 12.5445 73.2175 12.017Z" fill="#263238"/>
<path d="M77.3351 33.7435C67.3079 35.9791 70.4066 29.9137 71.0059 28.5771L71.2577 28.4812C72.4564 28.0437 72.6961 27.9778 74.2904 27.5103C77.0724 26.7593 79.9045 26.2085 82.7652 25.8621L83.3645 25.7782C83.9639 25.7003 84.5093 25.6403 85.0607 25.5924C85.4323 25.5504 85.8039 25.5264 86.1575 25.5025L87.3562 25.4305C87.56 26.3655 88.0574 31.3641 77.3351 33.7435Z" fill="#E58A7B"/>
<path d="M93.0737 52.7251L94.2425 54.2354C94.3324 54.3493 94.2065 54.5111 93.9907 54.5531L74.416 58.3649C74.2481 58.4009 74.0923 58.3649 74.0624 58.2391L73.5649 56.6028C73.5649 56.489 73.6608 56.3631 73.8406 56.3272L92.7441 52.6471C92.8011 52.6304 92.8614 52.6287 92.9193 52.6424C92.9771 52.656 93.0303 52.6845 93.0737 52.7251Z" fill="#26395A"/>
<path d="M90.9463 55.3321L91.4557 55.2362C91.5576 55.2362 91.6235 55.1523 91.6056 55.0864L90.9463 52.9647C90.9463 52.8988 90.8264 52.8688 90.7245 52.8868L90.2211 52.9827C90.1192 52.9827 90.0532 53.0726 90.0712 53.1325L90.7305 55.2602C90.7485 55.3202 90.8504 55.3561 90.9463 55.3321Z" fill="#FA541C"/>
<path d="M79.4806 62.4044L75.5789 60.954L76.1782 64.664C76.1782 64.664 79.0071 65.6829 80.4516 64.3763L79.4806 62.4044Z" fill="#E58A7B"/>
<path d="M71.8629 61.9369L70.934 64.3703L76.1783 64.664L75.5789 60.954L71.8629 61.9369Z" fill="#E58A7B"/>
<path d="M75.8726 58.2689L76.3821 58.173C76.478 58.173 76.5499 58.0891 76.5259 58.0232L75.8666 55.9015C75.8666 55.8356 75.7528 55.8056 75.6509 55.8236L75.1414 55.9195C75.0395 55.9195 74.9736 56.0094 74.9976 56.0693L75.6569 58.197C75.6748 58.2569 75.7707 58.2929 75.8726 58.2689Z" fill="#FA541C"/>
<path d="M83.4123 56.7945L83.9157 56.6986C84.0176 56.6986 84.0836 56.6147 84.0656 56.5488L83.4063 54.4271C83.4063 54.3612 83.2864 54.3312 83.1845 54.3492L82.6811 54.4451C82.5792 54.4451 82.5133 54.535 82.5312 54.5949L83.1905 56.7226C83.2144 56.7573 83.2491 56.7831 83.2892 56.7961C83.3293 56.8091 83.3726 56.8086 83.4123 56.7945Z" fill="#FA541C"/>
<path d="M81.2786 23.4827C81.7042 23.3209 82.2376 24.8192 82.1057 25.011C81.8001 25.4486 76.2021 26.9769 75.9504 26.1198C75.9348 25.6552 76.0059 25.1918 76.1602 24.7533C76.322 24.4656 77.5627 24.9931 81.2786 23.4827Z" fill="#FA541C"/>
<path d="M80.3317 23.5186C80.5475 23.0211 81.1648 22.224 81.7042 22.6795C82.2436 23.135 82.4714 24.1179 82.1178 24.2798C81.7642 24.4416 79.9601 24.3517 80.3317 23.5186Z" fill="#FA541C"/>
<path d="M81.4765 23.7764C81.8481 23.3809 82.6752 22.8355 83.0528 23.4468C83.4304 24.0581 83.2925 25.059 82.9089 25.089C82.5253 25.119 80.8472 24.4297 81.4765 23.7764Z" fill="#FA541C"/>
<path d="M81.6804 23.6864C81.6503 23.3677 81.7128 23.0471 81.8606 22.7632C82.0084 22.4793 82.2352 22.2442 82.5135 22.0861C83.1968 21.6426 83.8621 21.3549 84.1258 20.8874C84.2394 21.3257 84.2618 21.7827 84.1917 22.23C84.0539 22.8713 81.9262 23.3628 82.07 23.9201L81.6804 23.6864Z" fill="#FA541C"/>
<path d="M81.5904 23.6564C81.3918 23.4049 81.2704 23.1013 81.2406 22.7822C81.2108 22.4632 81.274 22.1423 81.4225 21.8584C81.7462 21.1152 82.1537 20.5158 82.1298 19.9884C82.4627 20.295 82.7299 20.6662 82.9149 21.0792C83.1427 21.6786 81.6263 23.2549 82.0518 23.6504L81.5904 23.6564Z" fill="#FA541C"/>
<path d="M123.275 140.74C123.263 140.739 123.251 140.736 123.241 140.729C123.23 140.723 123.221 140.714 123.215 140.704C123.077 140.512 109.376 120.961 104.354 103.784C101.076 92.7651 98.5568 81.5349 96.8139 70.1721C95.777 63.771 95.1477 59.9052 93.086 56.7346C93.072 56.7201 93.0643 56.7008 93.0643 56.6807C93.0643 56.6606 93.072 56.6412 93.086 56.6267C93.1001 56.6145 93.1182 56.6078 93.1369 56.6078C93.1556 56.6078 93.1737 56.6145 93.1879 56.6267C95.2736 59.8273 95.9029 63.7051 96.9398 70.1241C98.6908 81.4707 101.214 92.6846 104.492 103.688C109.508 120.841 123.197 140.368 123.335 140.566C123.346 140.58 123.352 140.598 123.352 140.617C123.352 140.635 123.346 140.653 123.335 140.668C123.334 140.684 123.328 140.701 123.317 140.714C123.306 140.727 123.292 140.736 123.275 140.74Z" fill="#FA541C"/>
<path opacity="0.4" d="M123.275 140.74C123.263 140.739 123.251 140.736 123.241 140.729C123.23 140.723 123.221 140.714 123.215 140.704C123.077 140.512 109.376 120.961 104.354 103.784C101.076 92.7651 98.5568 81.5349 96.8139 70.1721C95.777 63.771 95.1477 59.9052 93.086 56.7346C93.072 56.7201 93.0643 56.7008 93.0643 56.6807C93.0643 56.6606 93.072 56.6412 93.086 56.6267C93.1001 56.6145 93.1182 56.6078 93.1369 56.6078C93.1556 56.6078 93.1737 56.6145 93.1879 56.6267C95.2736 59.8273 95.9029 63.7051 96.9398 70.1241C98.6908 81.4707 101.214 92.6846 104.492 103.688C109.508 120.841 123.197 140.368 123.335 140.566C123.346 140.58 123.352 140.598 123.352 140.617C123.352 140.635 123.346 140.653 123.335 140.668C123.334 140.684 123.328 140.701 123.317 140.714C123.306 140.727 123.292 140.736 123.275 140.74Z" fill="black"/>
<path d="M97.9527 155.166L88.7946 156.353L88.1953 153.799L97.7309 151.78L97.9527 155.166Z" fill="#FA541C"/>
<path d="M126.026 140.458L119.272 144.36L116.994 142.412L124.384 137.413L126.026 140.458Z" fill="#FA541C"/>
<path d="M94.3267 31.6999C94.6503 33.3661 94.8361 34.9364 95.0159 36.5606C95.1958 38.1849 95.2617 39.7911 95.3096 41.4154C95.3574 43.0523 95.3214 44.6907 95.2017 46.324C95.1358 47.1451 95.0639 47.9662 94.95 48.7933C94.9021 49.2009 94.8481 49.6145 94.7702 50.028L94.5485 51.2986C94.3027 52.3343 93.8524 53.3104 93.2239 54.1695C92.7083 54.8923 92.1394 55.5755 91.5217 56.2133C90.3652 57.4014 89.1232 58.5031 87.8058 59.5097C85.2571 61.4721 82.56 63.2335 79.7385 64.778L78.4559 62.7882C79.6546 61.8352 80.8533 60.8523 82.052 59.8514C83.2507 58.8505 84.3895 57.8375 85.4863 56.7827C86.5702 55.7674 87.5929 54.6887 88.549 53.5522C88.9881 53.0264 89.3887 52.4695 89.7477 51.886C90.0308 51.4609 90.2339 50.9876 90.347 50.4895C90.542 49.0345 90.656 47.5699 90.6886 46.1023C90.6886 45.3531 90.6886 44.6039 90.6886 43.8547C90.6886 43.1055 90.6587 42.3443 90.6227 41.5892C90.5508 40.0788 90.4129 38.5924 90.2511 37.0581C90.0893 35.5237 89.8795 34.0074 89.6518 32.5869L94.3267 31.6999Z" fill="#E58A7B"/>
<path d="M93.6013 26.6053C96.1606 28.679 95.5492 34.8403 95.5492 34.8403L86.9186 37.6812C86.9186 37.6812 87.3142 30.5789 87.7457 28.0257C88.2491 24.987 91.0781 24.5615 93.6013 26.6053Z" fill="#FA541C"/>
<path d="M39.5447 67.7176C39.3589 66.9114 38.9053 66.192 38.2579 65.6768C37.6105 65.1617 36.8075 64.8812 35.9801 64.8813H9.37895C8.40887 64.8813 7.47853 65.2666 6.79259 65.9526C6.10664 66.6385 5.72128 67.5689 5.72128 68.539V127.667C5.72128 128.637 6.10664 129.567 6.79259 130.253C7.47853 130.939 8.40887 131.324 9.37895 131.324H93.8378C94.8078 131.324 95.7382 130.939 96.4241 130.253C97.1101 129.567 97.4954 128.637 97.4954 127.667V77.999C97.4954 77.0289 97.1101 76.0986 96.4241 75.4126C95.7382 74.7267 94.8078 74.3413 93.8378 74.3413H47.8676C45.9355 74.3417 44.0605 73.6868 42.5488 72.4837C41.0371 71.2806 39.9781 69.6004 39.5447 67.7176Z" fill="#8C4BF6"/>
<path opacity="0.6" d="M39.5447 67.7176C39.3589 66.9114 38.9053 66.192 38.2579 65.6768C37.6105 65.1617 36.8075 64.8812 35.9801 64.8813H9.37895C8.40887 64.8813 7.47853 65.2666 6.79259 65.9526C6.10664 66.6385 5.72128 67.5689 5.72128 68.539V127.667C5.72128 128.637 6.10664 129.567 6.79259 130.253C7.47853 130.939 8.40887 131.324 9.37895 131.324H93.8378C94.8078 131.324 95.7382 130.939 96.4241 130.253C97.1101 129.567 97.4954 128.637 97.4954 127.667V77.999C97.4954 77.0289 97.1101 76.0986 96.4241 75.4126C95.7382 74.7267 94.8078 74.3413 93.8378 74.3413H47.8676C45.9355 74.3417 44.0605 73.6868 42.5488 72.4837C41.0371 71.2806 39.9781 69.6004 39.5447 67.7176Z" fill="black"/>
<path opacity="0.22" d="M30.1545 49.3029L32.5254 56.9807C32.828 57.9579 33.5061 58.775 34.4108 59.2525C35.3154 59.7301 36.3726 59.8291 37.3502 59.5278L45.0246 57.157L30.1545 49.3029Z" fill="#8C4BF6"/>
<path d="M30.1546 49.3029L2.7221 57.7788C2.23783 57.9275 1.78765 58.1703 1.3973 58.4932C1.00696 58.8162 0.684115 59.2129 0.447237 59.6607C0.210359 60.1085 0.064096 60.5986 0.0168185 61.103C-0.0304589 61.6074 0.0221758 62.1162 0.171711 62.6002L15.8332 113.302C15.9826 113.786 16.226 114.236 16.5494 114.626C16.8728 115.016 17.2699 115.339 17.7179 115.575C18.166 115.812 18.6562 115.958 19.1607 116.005C19.6651 116.052 20.1739 115.999 20.658 115.849L55.7682 105.003C56.2522 104.853 56.702 104.61 57.092 104.287C57.482 103.964 57.8045 103.567 58.041 103.12C58.2776 102.672 58.4235 102.182 58.4706 101.678C58.5177 101.173 58.4649 100.665 58.3153 100.181L45.0147 57.157L30.1546 49.3029Z" fill="#8C4BF6"/>
<path opacity="0.8" d="M30.1546 49.3029L2.7221 57.7788C2.23783 57.9275 1.78765 58.1703 1.3973 58.4932C1.00696 58.8162 0.684115 59.2129 0.447237 59.6607C0.210359 60.1085 0.064096 60.5986 0.0168185 61.103C-0.0304589 61.6074 0.0221758 62.1162 0.171711 62.6002L15.8332 113.302C15.9826 113.786 16.226 114.236 16.5494 114.626C16.8728 115.016 17.2699 115.339 17.7179 115.575C18.166 115.812 18.6562 115.958 19.1607 116.005C19.6651 116.052 20.1739 115.999 20.658 115.849L55.7682 105.003C56.2522 104.853 56.702 104.61 57.092 104.287C57.482 103.964 57.8045 103.567 58.041 103.12C58.2776 102.672 58.4235 102.182 58.4706 101.678C58.5177 101.173 58.4649 100.665 58.3153 100.181L45.0147 57.157L30.1546 49.3029Z" fill="white"/>
<g opacity="0.28">
<path d="M44.915 102.788L22.0911 109.837C21.6643 109.968 21.2029 109.925 20.8079 109.717C20.4128 109.509 20.1163 109.153 19.983 108.727C19.853 108.3 19.8972 107.839 20.1059 107.445C20.3147 107.05 20.6709 106.755 21.0969 106.622L43.9207 99.5693C44.348 99.4383 44.8098 99.482 45.2049 99.6908C45.6 99.8996 45.8963 100.256 46.0289 100.683C46.1588 101.11 46.1146 101.571 45.9059 101.965C45.6972 102.36 45.341 102.655 44.915 102.788Z" fill="#8C4BF6"/>
</g>
<g opacity="0.28">
<path d="M20.352 61.4165L8.28173 65.144C7.8549 65.2742 7.39392 65.2305 6.99911 65.0225C6.60429 64.8145 6.3076 64.459 6.17359 64.0334C6.04354 63.6061 6.08765 63.1448 6.29631 62.7499C6.50497 62.355 6.86125 62.0586 7.28751 61.9253L19.3578 58.1978C19.7846 58.0657 20.2464 58.1086 20.6417 58.3168C21.037 58.525 21.3334 58.8817 21.466 59.3084C21.596 59.7356 21.5519 60.197 21.3432 60.5919C21.1346 60.9868 20.7783 61.2832 20.352 61.4165Z" fill="#8C4BF6"/>
</g>
<g opacity="0.28">
<path d="M30.201 65.3701L10.2501 71.5316C9.8242 71.6595 9.36499 71.6143 8.97218 71.4058C8.57936 71.1972 8.28464 70.8422 8.15198 70.4177C8.02098 69.9913 8.0643 69.5304 8.27247 69.1359C8.48063 68.7413 8.83666 68.4454 9.26258 68.3129L29.2135 62.1514C29.6403 62.0203 30.1017 62.0635 30.4967 62.2716C30.8918 62.4797 31.1884 62.8358 31.3216 63.262C31.4505 63.6901 31.405 64.1518 31.1952 64.5466C30.9853 64.9415 30.628 65.2374 30.201 65.3701Z" fill="#8C4BF6"/>
</g>
<g opacity="0.28">
<path d="M41.3404 68.9247L12.2253 77.9026C11.7989 78.0336 11.338 77.9903 10.9435 77.7821C10.549 77.574 10.2531 77.2179 10.1205 76.792C9.99033 76.3652 10.034 75.9042 10.242 75.5094C10.45 75.1146 10.8055 74.8179 11.2311 74.6839L40.3461 65.706C40.7725 65.5759 41.2331 65.6196 41.6273 65.8277C42.0216 66.0357 42.3177 66.3912 42.451 66.8166C42.582 67.2434 42.5388 67.7048 42.3307 68.0998C42.1226 68.4949 41.7665 68.7915 41.3404 68.9247Z" fill="#8C4BF6"/>
</g>
<g opacity="0.28">
<path d="M43.3122 75.3089L26.3872 80.5394C25.9603 80.6693 25.4994 80.6251 25.1051 80.4164C24.7107 80.2077 24.415 79.8515 24.2824 79.4255C24.1523 78.9991 24.196 78.5386 24.404 78.1443C24.6121 77.75 24.9676 77.454 25.393 77.3207L42.318 72.0902C42.7452 71.9611 43.2062 72.0056 43.6009 72.2141C43.9955 72.4226 44.292 72.7784 44.4261 73.2041C44.5561 73.631 44.5119 74.0919 44.3032 74.4862C44.0944 74.8806 43.7382 75.1763 43.3122 75.3089Z" fill="#8C4BF6"/>
</g>
<g opacity="0.28">
<path d="M18.6263 82.9368L14.2005 84.3035C13.7737 84.4346 13.3123 84.3913 12.9173 84.1832C12.5222 83.9751 12.2256 83.619 12.0924 83.1929C11.9614 82.7656 12.0051 82.3038 12.2139 81.9087C12.4227 81.5136 12.7795 81.2173 13.2063 81.0847L17.6321 79.7181C18.0589 79.5879 18.5199 79.6315 18.9147 79.8395C19.3095 80.0475 19.6062 80.403 19.7402 80.8287C19.8694 81.256 19.8248 81.7169 19.6163 82.1116C19.4078 82.5062 19.052 82.8028 18.6263 82.9368Z" fill="#8C4BF6"/>
</g>
<g opacity="0.28">
<path d="M45.2874 81.6966L16.1723 90.6912C15.7455 90.8211 15.2846 90.7769 14.8902 90.5682C14.4959 90.3595 14.2001 90.0032 14.0675 89.5772C13.9365 89.1508 13.9798 88.6899 14.188 88.2954C14.3962 87.9009 14.7522 87.6049 15.1781 87.4724L44.2931 78.4779C44.7195 78.3478 45.1801 78.3915 45.5743 78.5996C45.9686 78.8076 46.2647 79.1631 46.398 79.5885C46.5291 80.0153 46.4858 80.4767 46.2777 80.8717C46.0696 81.2668 45.7135 81.5634 45.2874 81.6966Z" fill="#8C4BF6"/>
</g>
<g opacity="0.28">
<path d="M36.0235 91.5524L18.1442 97.0754C17.7178 97.2055 17.2572 97.1618 16.863 96.9537C16.4687 96.7457 16.1726 96.3902 16.0393 95.9648C15.9092 95.538 15.9528 95.077 16.1608 94.6822C16.3688 94.2874 16.7243 93.9907 17.1499 93.8567L35.0293 88.3336C35.4565 88.2036 35.9179 88.2477 36.3128 88.4563C36.7077 88.665 37.0041 89.0213 37.1374 89.4475C37.2683 89.8744 37.2245 90.3357 37.0157 90.7303C36.8068 91.1249 36.45 91.4205 36.0235 91.5524Z" fill="#8C4BF6"/>
</g>
<g opacity="0.28">
<path d="M47.2592 88.0842L42.4876 89.5572C42.0603 89.6873 41.5989 89.6432 41.204 89.4345C40.8092 89.2259 40.5127 88.8696 40.3794 88.4433C40.2495 88.0165 40.2937 87.5556 40.5024 87.1612C40.7111 86.7669 41.0673 86.4711 41.4933 86.3385L46.2649 84.8655C46.6913 84.7345 47.1523 84.7778 47.5468 84.9859C47.9413 85.1941 48.2372 85.5501 48.3697 85.9761C48.5008 86.4029 48.4576 86.8643 48.2495 87.2593C48.0414 87.6544 47.6853 87.9509 47.2592 88.0842Z" fill="#8C4BF6"/>
</g>
<g opacity="0.28">
<path d="M49.2309 94.4751L20.1225 103.453C19.6953 103.584 19.2335 103.54 18.8384 103.332C18.4433 103.123 18.147 102.766 18.0144 102.339C17.8835 101.912 17.9273 101.451 18.1361 101.056C18.345 100.662 18.7018 100.366 19.1283 100.234L48.24 91.2398C48.6673 91.1106 49.1282 91.1552 49.5229 91.3637C49.9175 91.5722 50.2141 91.9279 50.3481 92.3537C50.4149 92.5663 50.439 92.7901 50.4189 93.012C50.3988 93.234 50.335 93.4498 50.2312 93.647C50.1273 93.8442 49.9855 94.0189 49.8138 94.161C49.6421 94.3032 49.444 94.4099 49.2309 94.4751Z" fill="#8C4BF6"/>
</g>
<path d="M49.8561 30.2365L58.5614 49.6354C58.7873 50.1418 58.8037 50.7171 58.6068 51.2355C58.4099 51.7539 58.0158 52.1733 57.5106 52.402L20.5815 68.9778C20.0752 69.2047 19.4996 69.2215 18.9809 69.0246C18.4623 68.8276 18.043 68.4329 17.815 67.9271L9.1064 48.5282C8.87846 48.0215 8.8611 47.4451 9.05815 46.9256C9.2552 46.4062 9.65052 45.9863 10.1571 45.7583L47.0863 29.1824C47.5935 28.9565 48.1696 28.9406 48.6886 29.1381C49.2076 29.3356 49.6274 29.7305 49.8561 30.2365Z" fill="#8C4BF6"/>
<path opacity="0.3" d="M49.8561 30.2365L58.5614 49.6354C58.7873 50.1418 58.8037 50.7171 58.6068 51.2355C58.4099 51.7539 58.0158 52.1733 57.5106 52.402L20.5815 68.9778C20.0752 69.2047 19.4996 69.2215 18.9809 69.0246C18.4623 68.8276 18.043 68.4329 17.815 67.9271L9.1064 48.5282C8.87846 48.0215 8.8611 47.4451 9.05815 46.9256C9.2552 46.4062 9.65052 45.9863 10.1571 45.7583L47.0863 29.1824C47.5935 28.9565 48.1696 28.9406 48.6886 29.1381C49.2076 29.3356 49.6274 29.7305 49.8561 30.2365Z" fill="black"/>
<path d="M44.0359 29.278L42.8558 29.8074L42.9919 30.1108L44.172 29.5814L44.0359 29.278Z" fill="#8C4BF6"/>
<path d="M41.2029 30.5473L37.5228 32.1981L37.6589 32.5015L41.339 30.8506L41.2029 30.5473Z" fill="#8C4BF6"/>
<path d="M9.07353 50.4832L8.77019 50.6194L9.77807 52.8642L10.0814 52.728L9.07353 50.4832Z" fill="#8C4BF6"/>
<path opacity="0.6" d="M48.6191 29.1127L39.0959 47.7668C38.2122 49.4957 36.765 50.8715 34.9935 51.6665C33.222 52.4616 31.2323 52.6284 29.3532 52.1393L9.08638 46.8557C9.29429 46.3694 9.67606 45.9781 10.1571 45.7584L47.0862 29.1825C47.5699 28.9662 48.1177 28.9412 48.6191 29.1127Z" fill="#8C4BF6"/>
<path d="M61.7102 52.9873L33.0541 54.7562C32.5478 54.7863 32.0524 54.916 31.5963 55.1377C31.1402 55.3595 30.7323 55.669 30.396 56.0486C30.0597 56.4282 29.8015 56.8703 29.6362 57.3498C29.471 57.8293 29.4019 58.3366 29.433 58.8428L32.7016 111.806C32.7321 112.312 32.8622 112.808 33.0846 113.264C33.307 113.72 33.6172 114.128 33.9974 114.464C34.3777 114.8 34.8205 115.058 35.3005 115.223C35.7806 115.387 36.2884 115.456 36.7949 115.424L73.4713 113.159C73.977 113.129 74.4717 112.999 74.927 112.777C75.3824 112.555 75.7895 112.245 76.1249 111.865C76.4604 111.486 76.7177 111.044 76.882 110.564C77.0462 110.085 77.1143 109.578 77.0824 109.073L74.3225 64.1265L61.7102 52.9873Z" fill="#8C4BF6"/>
<path opacity="0.8" d="M61.7102 52.9873L33.0541 54.7562C32.5478 54.7863 32.0524 54.916 31.5963 55.1377C31.1402 55.3595 30.7323 55.669 30.396 56.0486C30.0597 56.4282 29.8015 56.8703 29.6362 57.3498C29.471 57.8293 29.4019 58.3366 29.433 58.8428L32.7016 111.806C32.7321 112.312 32.8622 112.808 33.0846 113.264C33.307 113.72 33.6172 114.128 33.9974 114.464C34.3777 114.8 34.8205 115.058 35.3005 115.223C35.7806 115.387 36.2884 115.456 36.7949 115.424L73.4713 113.159C73.977 113.129 74.4717 112.999 74.927 112.777C75.3824 112.555 75.7895 112.245 76.1249 111.865C76.4604 111.486 76.7177 111.044 76.882 110.564C77.0462 110.085 77.1143 109.578 77.0824 109.073L74.3225 64.1265L61.7102 52.9873Z" fill="white"/>
<g opacity="0.22">
<path d="M63.4427 108.441L39.598 109.914C39.1526 109.939 38.7151 109.787 38.3812 109.492C38.0473 109.196 37.844 108.78 37.8158 108.334C37.7902 107.889 37.9414 107.452 38.2366 107.117C38.5317 106.783 38.9469 106.579 39.3919 106.549L63.2365 105.079C63.682 105.053 64.1198 105.203 64.4544 105.499C64.7889 105.794 64.993 106.21 65.0221 106.655C65.0485 107.101 64.8972 107.539 64.6011 107.874C64.3051 108.209 63.8886 108.412 63.4427 108.441Z" fill="#8C4BF6"/>
</g>
<g opacity="0.22">
<path d="M49.3307 62.4473L36.7184 63.2187C36.2732 63.2443 35.8358 63.093 35.5015 62.7979C35.1671 62.5028 34.9628 62.0876 34.9328 61.6426C34.9073 61.1968 35.059 60.759 35.3548 60.4246C35.6507 60.0901 36.0667 59.8861 36.5123 59.857L49.1246 59.0789C49.5697 59.0525 50.0071 59.2036 50.3412 59.499C50.6752 59.7943 50.8786 60.21 50.9068 60.6551C50.9351 61.1016 50.785 61.5412 50.4895 61.8772C50.194 62.2132 49.7772 62.4183 49.3307 62.4473Z" fill="#8C4BF6"/>
</g>
<g opacity="0.22">
<path d="M57.9694 68.6121L37.1307 69.8956C36.685 69.9229 36.2467 69.7723 35.912 69.4768C35.5772 69.1814 35.3733 68.7651 35.3451 68.3195C35.3187 67.8735 35.4701 67.4352 35.7661 67.1006C36.0621 66.7659 36.4787 66.5621 36.9245 66.5339L57.7599 65.2504C58.2056 65.2231 58.6439 65.3737 58.9787 65.6692C59.3135 65.9647 59.5173 66.3809 59.5455 66.8265C59.572 67.272 59.421 67.7098 59.1257 68.0444C58.8304 68.3789 58.4147 68.583 57.9694 68.6121Z" fill="#8C4BF6"/>
</g>
<g opacity="0.22">
<path d="M67.9549 74.6938L37.543 76.5692C37.0961 76.5965 36.6566 76.4457 36.3207 76.1496C35.9848 75.8536 35.7799 75.4365 35.7508 74.9897C35.7244 74.5446 35.8754 74.1072 36.1708 73.7731C36.4662 73.4391 36.8819 73.2357 37.3269 73.2075L67.742 71.3287C68.1875 71.3033 68.6249 71.455 68.9589 71.751C69.2928 72.0469 69.4961 72.4629 69.5243 72.9082C69.5508 73.3526 69.4008 73.7895 69.1069 74.1238C68.813 74.4582 68.399 74.663 67.9549 74.6938Z" fill="#8C4BF6"/>
</g>
<g opacity="0.22">
<path d="M68.3672 81.3641L50.6874 82.4547C50.2419 82.4812 49.8041 82.3302 49.4695 82.0349C49.1349 81.7396 48.9308 81.3239 48.9018 80.8786C48.8744 80.4329 49.025 79.9946 49.3205 79.6598C49.616 79.3251 50.0322 79.1212 50.4779 79.093L68.1577 78.0024C68.6034 77.975 69.0417 78.1256 69.3764 78.4211C69.7112 78.7166 69.9151 79.1328 69.9433 79.5785C69.9697 80.0239 69.8188 80.4618 69.5235 80.7963C69.2282 81.1309 68.8125 81.335 68.3672 81.3641Z" fill="#8C4BF6"/>
</g>
<g opacity="0.22">
<path d="M42.5774 82.9535L37.9521 83.2394C37.507 83.2658 37.0695 83.1148 36.7355 82.8194C36.4015 82.524 36.1981 82.1083 36.1698 81.6633C36.1434 81.2178 36.2943 80.78 36.5896 80.4454C36.8849 80.1109 37.3006 79.9068 37.7459 79.8777L42.3712 79.5917C42.817 79.5662 43.2548 79.7179 43.5893 80.0137C43.9237 80.3096 44.1277 80.7256 44.1568 81.1712C44.1823 81.6166 44.0305 82.0541 43.7346 82.388C43.4387 82.7219 43.0227 82.9252 42.5774 82.9535Z" fill="#8C4BF6"/>
</g>
<g opacity="0.22">
<path d="M68.7795 88.0343L38.3644 89.9097C37.9189 89.9361 37.4811 89.7852 37.1465 89.4899C36.812 89.1946 36.6078 88.7789 36.5788 88.3336C36.5532 87.8878 36.7049 87.45 37.0008 87.1155C37.2966 86.7811 37.7126 86.5771 38.1582 86.548L68.57 84.6726C69.016 84.6462 69.4543 84.7976 69.789 85.0936C70.1236 85.3896 70.3274 85.8061 70.3556 86.252C70.382 86.6972 70.231 87.1346 69.9356 87.4686C69.6402 87.8027 69.2245 88.0061 68.7795 88.0343Z" fill="#8C4BF6"/>
</g>
<g opacity="0.22">
<path d="M57.454 95.4295L38.7766 96.5833C38.3308 96.6088 37.893 96.4571 37.5586 96.1613C37.2241 95.8654 37.0201 95.4494 36.991 95.0038C36.9655 94.5584 37.1173 94.1209 37.4133 93.787C37.7092 93.4531 38.1252 93.2498 38.5705 93.2216L57.2478 92.0677C57.6933 92.0422 58.1307 92.194 58.4647 92.49C58.7986 92.7859 59.0019 93.2019 59.0301 93.6472C59.0574 94.0925 58.9067 94.5305 58.6111 94.8647C58.3156 95.1989 57.8993 95.4021 57.454 95.4295Z" fill="#8C4BF6"/>
</g>
<g opacity="0.22">
<path d="M69.1885 94.7079L64.2008 95.0138C63.7557 95.0402 63.3182 94.8892 62.9842 94.5938C62.6501 94.2984 62.4467 93.8827 62.4185 93.4377C62.3912 92.992 62.5418 92.5537 62.8373 92.2189C63.1328 91.8842 63.549 91.6803 63.9946 91.6521L68.9823 91.3462C69.428 91.3189 69.8663 91.4695 70.2011 91.765C70.5359 92.0605 70.7397 92.4767 70.768 92.9223C70.7935 93.3681 70.6418 93.8059 70.3459 94.1404C70.0501 94.4748 69.6341 94.6788 69.1885 94.7079Z" fill="#8C4BF6"/>
</g>
<g opacity="0.22">
<path d="M69.6009 101.378L39.1891 103.253C38.7436 103.28 38.3058 103.129 37.9713 102.834C37.6367 102.538 37.4326 102.123 37.4035 101.677C37.3771 101.232 37.528 100.794 37.8233 100.46C38.1186 100.125 38.5343 99.9209 38.9796 99.8918L69.3948 98.0164C69.8399 97.99 70.2774 98.141 70.6114 98.4364C70.9454 98.7318 71.1488 99.1475 71.1771 99.5925C71.2044 100.038 71.0538 100.477 70.7583 100.811C70.4628 101.146 70.0466 101.35 69.6009 101.378Z" fill="#8C4BF6"/>
</g>
<path opacity="0.22" d="M61.7103 52.9873L62.2057 61.0075C62.2367 61.5132 62.3669 62.0078 62.589 62.4632C62.8112 62.9185 63.1208 63.3256 63.5003 63.6613C63.8798 63.9969 64.3217 64.2545 64.8008 64.4194C65.2798 64.5842 65.7867 64.653 66.2924 64.622L74.3226 64.1265L61.7103 52.9873Z" fill="#8C4BF6"/>
<path opacity="0.5" d="M52.3267 72.9947C52.3216 72.6103 52.2396 72.2309 52.0855 71.8788C51.9314 71.5267 51.7082 71.209 51.4292 70.9446C51.1502 70.6802 50.8211 70.4744 50.4612 70.3393C50.1014 70.2043 49.7181 70.1427 49.334 70.1583H22.6996C20.6812 70.1583 18.7094 71.7976 18.3303 73.816L7.81953 127.667C7.42716 129.685 8.74392 131.324 10.7623 131.324H95.2211C97.2395 131.324 99.1946 129.688 99.5903 127.667L108.259 83.276C108.651 81.2544 107.335 79.6184 105.316 79.6184H59.3594C55.3692 79.6184 52.463 76.8718 52.3267 72.9947Z" fill="#8C4BF6"/>
</svg>
