<svg width="224" height="138" viewBox="0 0 224 138" fill="none" xmlns="http://www.w3.org/2000/svg">
<path d="M134.898 50.0378C127.442 57.7929 105.045 92.3076 103.3 93.3387C103.3 93.3387 103.3 115.912 115.775 111.405C128.249 106.897 139.683 66.3984 142.124 53.4879C143.411 46.6713 140.988 43.7103 134.898 50.0378Z" fill="#D3766A"/>
<path d="M136.797 76.7224L113.937 74.1227C113.937 74.1227 128.117 55.3121 135.444 48.5969C143.085 41.5996 146.83 42.5822 143.288 55.8365C139.727 69.17 136.797 76.7224 136.797 76.7224Z" fill="#FA541C"/>
<path d="M137.872 64.27C138.124 64.9007 138.284 65.5639 138.348 66.2397C137.551 65.1376 137.054 63.8467 136.907 62.4943C137.315 63.0352 137.64 63.6336 137.872 64.27ZM125.032 64.7856C125.661 64.5339 126.323 64.3736 126.998 64.3097C125.898 65.1081 124.608 65.6048 123.257 65.7506C123.797 65.3418 124.395 65.0166 125.032 64.7856ZM128.438 73.6775C128.707 73.056 129.064 72.4759 129.496 71.9547C129.395 72.6238 129.199 73.2751 128.914 73.889C128.654 74.5144 128.3 75.0968 127.866 75.6163C127.964 74.9463 128.157 74.2936 128.438 73.6775ZM141.851 45.0365C141.966 44.7941 142.08 44.5562 142.213 44.3182C142.369 44.3029 142.527 44.3029 142.684 44.3182C142.578 44.6399 142.459 44.9483 142.327 45.2568C142.062 45.8809 141.708 46.4629 141.274 46.9841C141.373 46.3108 141.568 45.6551 141.851 45.0365ZM115.506 72.0648L115.947 72.2411C116.57 72.5094 117.153 72.8639 117.678 73.2942C117.006 73.1946 116.352 73.0002 115.735 72.717C115.559 72.6376 115.387 72.5539 115.215 72.4614L115.506 72.0648ZM133.131 53.9064C133.753 54.1732 134.335 54.5263 134.858 54.9551C134.187 54.8587 133.532 54.6658 132.915 54.3823C132.292 54.1149 131.711 53.7603 131.188 53.3292C131.863 53.4261 132.521 53.6206 133.14 53.9064H133.131ZM134.665 53.946C134.691 53.9637 134.716 53.9828 134.739 54.0033H134.66C134.66 54.0033 134.673 53.9593 134.673 53.946H134.665Z" fill="white"/>
<path d="M135.7 72.6113C135.167 72.4879 134.607 72.4394 134.065 72.3645L132.382 72.131C131.25 71.9723 130.113 71.8313 128.976 71.6903C126.702 71.426 124.429 71.1484 122.151 70.9236C121.525 70.862 120.895 70.8003 120.269 70.7518C119.643 70.7033 118.947 70.7033 118.286 70.6548C118.247 70.6548 118.247 70.7121 118.286 70.7165C118.846 70.8003 119.401 70.928 119.961 71.0162C120.52 71.1043 121.115 71.1836 121.692 71.2541C122.825 71.3995 123.966 71.5317 125.103 71.6595C127.341 71.9018 129.584 72.1574 131.831 72.3557L133.708 72.5143C134.365 72.5716 135.03 72.6685 135.691 72.6641C135.696 72.6622 135.701 72.6591 135.704 72.6549C135.708 72.6507 135.71 72.6456 135.711 72.6403C135.712 72.6349 135.711 72.6294 135.709 72.6243C135.708 72.6192 135.704 72.6147 135.7 72.6113Z" fill="#263238"/>
<path opacity="0.1" d="M125.707 75.4623L136.793 76.7225C136.793 76.7225 139.723 69.1701 143.288 55.8365C144.79 50.2141 144.98 46.7992 144.116 45.2614L125.707 75.4623Z" fill="black"/>
<path d="M130.457 123.738H165.227C165.513 122.619 165.791 121.535 166.068 120.433C166.386 119.186 166.699 117.97 166.998 116.785C167.064 116.52 167.135 116.256 167.201 115.996C167.43 115.088 167.655 114.207 167.875 113.352C168.007 112.828 168.139 112.312 168.267 111.801C168.395 111.29 168.532 110.77 168.659 110.272C168.695 110.14 168.725 110.008 168.761 109.88L168.866 109.439L168.999 108.924C169.047 108.743 169.091 108.567 169.135 108.391C169.223 108.056 169.307 107.725 169.386 107.404C169.51 106.928 169.629 106.461 169.743 106.007C169.792 105.809 169.845 105.61 169.893 105.416C169.977 105.099 170.056 104.791 170.131 104.487C170.184 104.284 170.232 104.086 170.281 103.892C170.486 103.093 170.677 102.344 170.854 101.645C170.902 101.46 170.946 101.279 170.995 101.103C171.07 100.799 171.145 100.508 171.215 100.221C171.265 100.045 171.309 99.8733 171.347 99.7058C171.501 99.1066 171.642 98.5602 171.761 98.0799C171.797 97.9521 171.827 97.8287 171.858 97.7098C171.938 97.3925 172.013 97.1105 172.074 96.8594C172.101 96.758 172.123 96.6611 172.149 96.5729L172.22 96.2953C172.22 96.2337 172.25 96.172 172.264 96.1191L172.325 95.8811C172.325 95.843 172.334 95.8077 172.352 95.7754L172.431 95.4626H138.586C138.586 95.4626 137.471 99.3049 135.687 105.5C135.326 106.76 134.933 108.144 134.515 109.567C133.329 113.7 131.946 118.521 130.457 123.738Z" fill="#37474F"/>
<path d="M159.534 123.738H160.415C161.702 118.412 162.949 113.076 164.156 107.73C164.45 106.428 164.744 105.127 165.037 103.826L165.117 103.46C165.118 103.447 165.115 103.435 165.108 103.424C165.101 103.414 165.09 103.406 165.077 103.403C165.065 103.4 165.052 103.401 165.041 103.407C165.029 103.412 165.02 103.422 165.015 103.434C165.015 103.473 164.993 103.513 164.98 103.553C164.589 104.951 164.2 106.351 163.812 107.752C162.323 113.066 160.897 118.395 159.534 123.738Z" fill="#263238"/>
<path d="M139.683 95.467L141.177 102.958L142.402 109.091L144.486 119.543L144.702 120.614L145.059 122.398L145.337 123.738H165.231C165.513 122.614 165.795 121.535 166.068 120.433C166.386 119.186 166.699 117.97 166.998 116.785C167.064 116.52 167.135 116.256 167.201 115.996C167.43 115.088 167.655 114.207 167.875 113.352C168.007 112.828 168.139 112.312 168.267 111.801C168.395 111.29 168.532 110.77 168.659 110.272C168.695 110.14 168.725 110.008 168.761 109.88L168.866 109.439L168.999 108.924C169.047 108.743 169.091 108.567 169.135 108.391C169.223 108.056 169.307 107.725 169.386 107.404C169.51 106.928 169.629 106.461 169.743 106.007C169.796 105.804 169.845 105.61 169.893 105.416C169.977 105.099 170.056 104.791 170.131 104.487C170.184 104.284 170.232 104.086 170.281 103.892C170.486 103.093 170.677 102.344 170.854 101.645C170.902 101.46 170.946 101.279 170.995 101.103C171.07 100.799 171.145 100.508 171.215 100.221C171.265 100.045 171.309 99.8733 171.347 99.7058C171.501 99.1066 171.642 98.5602 171.761 98.0799C171.797 97.9521 171.827 97.8287 171.858 97.7098C171.938 97.3925 172.013 97.1105 172.074 96.8594C172.101 96.758 172.123 96.6611 172.149 96.5729L172.22 96.2953C172.22 96.2337 172.25 96.172 172.264 96.1191L172.325 95.8811C172.325 95.843 172.334 95.8077 172.352 95.7754L172.431 95.4626L139.683 95.467Z" fill="#263238"/>
<path d="M139.679 95.4537C139.679 95.6388 139.82 97.6569 140.146 100.741C140.238 101.623 140.349 102.627 140.476 103.685C140.675 105.355 140.917 107.21 141.226 109.144C141.745 112.541 142.424 116.247 143.305 119.869C143.618 121.191 143.962 122.464 144.328 123.729H188.016C187.501 117.071 187.029 111.048 186.655 106.302C186.13 99.6221 185.773 95.4405 185.773 95.4405H146.143L139.679 95.4537Z" fill="#37474F"/>
<path d="M139.771 99.4679C139.82 101.032 139.886 102.592 139.987 104.147C140.093 105.835 140.247 107.518 140.468 109.201C140.468 109.263 140.468 109.325 140.49 109.386C140.695 110.964 140.932 112.537 141.199 114.106C141.45 115.569 141.64 117.146 142.283 118.512C142.527 119.036 142.875 119.505 143.305 119.891C143.699 120.251 144.181 120.501 144.702 120.614C144.787 120.635 144.874 120.65 144.962 120.658H145.037C145.021 120.667 145.008 120.681 144.999 120.697C144.991 120.713 144.987 120.732 144.988 120.75C144.988 121.275 144.988 121.808 145.05 122.328C145.05 122.35 145.05 122.372 145.05 122.394C145.103 122.835 145.187 123.297 145.27 123.747H146.02V123.72C145.887 123.227 145.777 122.729 145.654 122.231C145.53 121.733 145.354 121.226 145.235 120.711C145.229 120.691 145.216 120.675 145.2 120.662C145.675 120.685 146.147 120.562 146.55 120.309C146.953 120.056 147.269 119.686 147.456 119.248C147.644 118.578 147.656 117.871 147.491 117.194C147.355 116.313 147.222 115.406 147.086 114.511C146.83 112.867 146.5 111.242 146.205 109.607L146.072 108.862C145.486 105.535 144.874 102.209 144.138 98.9127C144.112 98.7761 144.081 98.6395 144.05 98.5029C144.019 98.3663 143.882 98.4368 143.891 98.5249C143.913 98.7452 143.935 98.9655 143.962 99.1903C144.091 100.456 144.238 101.717 144.402 102.971C144.614 104.447 144.759 105.932 144.966 107.408C145.037 107.91 145.107 108.413 145.182 108.915C145.522 111.343 145.874 113.762 146.288 116.19C146.482 117.313 147.17 119.327 145.566 119.675C145.195 119.757 144.808 119.709 144.469 119.539C143.754 119.108 143.221 118.434 142.966 117.64C142.569 116.317 142.282 114.964 142.107 113.595C141.842 112.126 141.607 110.644 141.402 109.149C141.137 107.295 140.861 105.443 140.573 103.592C140.429 102.649 140.283 101.706 140.133 100.763L139.921 99.4414C139.917 99.3489 139.771 99.3753 139.771 99.4679Z" fill="#263238"/>
<path d="M178.432 111.083C176.613 111.064 174.803 110.82 173.044 110.356C172.233 110.149 171.431 109.889 170.633 109.629C169.843 109.411 169.103 109.039 168.457 108.536C167.232 107.479 166.663 105.817 166.13 104.337C165.551 102.67 165.082 100.967 164.724 99.2387C164.724 99.155 164.583 99.1859 164.579 99.2652C164.537 101.219 164.785 103.169 165.315 105.051C165.755 106.65 166.346 108.43 167.637 109.55C168.928 110.669 170.836 111.145 172.576 111.356C174.528 111.583 176.501 111.557 178.446 111.277C178.471 111.275 178.495 111.263 178.512 111.244C178.529 111.224 178.538 111.199 178.536 111.173C178.534 111.148 178.522 111.124 178.503 111.107C178.484 111.09 178.458 111.081 178.432 111.083Z" fill="#263238"/>
<path d="M181.469 99.2916C181.565 101.736 181.668 104.183 181.777 106.633C182.027 112.334 182.301 118.036 182.601 123.738H183.421C183.045 118.024 182.649 112.314 182.235 106.606C182.056 104.165 181.871 101.725 181.68 99.2872C181.679 99.2591 181.668 99.2325 181.648 99.213C181.627 99.1936 181.6 99.183 181.572 99.1836C181.544 99.1842 181.517 99.1959 181.498 99.2162C181.479 99.2364 181.468 99.2635 181.469 99.2916Z" fill="#263238"/>
<path d="M132.157 113.55L191.427 109.056C191.427 109.056 179.503 61.7982 155.96 44.4241C149.941 39.9869 143.354 42.8334 140.388 46.1514C132.854 54.6027 131.981 113.361 132.157 113.55Z" fill="#FA541C"/>
<path d="M153.22 46.5743C153.468 47.2042 153.628 47.8656 153.695 48.5395C153.29 48.0014 152.963 47.4078 152.726 46.777C152.477 46.1471 152.317 45.4857 152.25 44.8118C152.654 45.351 152.981 45.9443 153.22 46.5743ZM159.653 72.0693C159.906 72.699 160.065 73.3627 160.124 74.0389C159.33 72.9352 158.836 71.645 158.688 70.2935C159.092 70.8365 159.417 71.4345 159.653 72.0693ZM180.83 83.0014C181.08 83.6322 181.241 84.2953 181.305 84.971C180.508 83.8689 180.011 82.5781 179.865 81.2256C180.266 81.7708 180.59 82.3682 180.83 83.0014ZM163.737 99.1065C163.993 99.7341 164.154 100.397 164.213 101.072C163.42 99.968 162.925 98.6778 162.777 97.3263C163.181 97.8704 163.504 98.47 163.737 99.1065ZM137.872 64.2613C138.124 64.8919 138.284 65.5551 138.348 66.2309C137.551 65.1288 137.054 63.838 136.907 62.4855C137.316 63.0291 137.641 63.6306 137.872 64.2701V64.2613ZM148.421 96.3173C148.677 96.945 148.839 97.6073 148.901 98.2825C148.496 97.7447 148.171 97.151 147.936 96.52C147.686 95.8907 147.525 95.229 147.461 94.5547C147.864 95.0927 148.188 95.6864 148.421 96.3173ZM169.779 63.0628C170.03 63.6919 170.19 64.3536 170.254 65.028C169.456 63.9269 168.96 62.6353 168.818 61.2826C169.224 61.8257 169.547 62.4255 169.779 63.0628ZM146.099 54.6026C146.727 54.3489 147.389 54.1885 148.064 54.1267C147.525 54.5294 146.932 54.8528 146.302 55.0873C145.672 55.3421 145.008 55.5025 144.332 55.5632C144.872 55.1594 145.467 54.8359 146.099 54.6026ZM139.384 75.8455C140.012 75.5927 140.674 75.4325 141.349 75.3696C140.811 75.7741 140.218 76.0977 139.586 76.3302C138.958 76.5844 138.296 76.7462 137.621 76.8105C138.16 76.4107 138.753 76.0916 139.384 75.8631V75.8455ZM137.582 101.235C138.211 100.983 138.872 100.823 139.547 100.759C139.009 101.165 138.416 101.49 137.784 101.724C137.155 101.974 136.493 102.134 135.819 102.2C136.359 101.803 136.953 101.484 137.582 101.252V101.235ZM179.772 99.1461C180.401 98.8944 181.063 98.7342 181.737 98.6702C180.637 99.4687 179.348 99.9654 177.996 100.111C178.54 99.712 179.138 99.393 179.772 99.1638V99.1461ZM164.522 82.8427C165.151 82.5901 165.812 82.4284 166.487 82.3625C165.949 82.7679 165.355 83.0943 164.724 83.3318C164.095 83.5805 163.433 83.7407 162.759 83.8077C163.298 83.4082 163.892 83.0877 164.522 82.856V82.8427ZM141.851 45.0233C141.913 44.8911 141.975 44.7633 142.041 44.6355C142.257 44.4725 142.481 44.3139 142.724 44.1597C142.615 44.529 142.482 44.8911 142.327 45.2436C142.062 45.8678 141.708 46.4497 141.274 46.9709C141.374 46.3021 141.569 45.6509 141.851 45.0365V45.0233ZM159.173 58.7269C159.438 58.1033 159.793 57.5215 160.226 56.9997C160.014 58.3437 159.451 59.6082 158.595 60.6657C158.692 59.9948 158.887 59.3416 159.173 58.7269ZM143.878 110.867C144.144 110.244 144.497 109.663 144.927 109.14C144.829 109.81 144.636 110.463 144.354 111.078C144.103 111.658 143.779 112.203 143.389 112.7H143.319C143.42 112.066 143.608 111.449 143.878 110.867ZM149.505 80.1593C149.773 79.5369 150.128 78.9554 150.558 78.432C150.339 79.7731 149.779 81.0355 148.932 82.0981C149.03 81.4278 149.223 80.7749 149.505 80.1593ZM189.876 103.574C189.902 103.667 189.929 103.76 189.959 103.848C189.902 103.909 189.849 103.975 189.796 104.037C189.814 103.886 189.841 103.736 189.876 103.588V103.574ZM172.25 91.8184C172.518 91.197 172.873 90.6169 173.304 90.0955C173.091 91.4379 172.528 92.7007 171.673 93.7572C171.778 93.0907 171.977 92.4424 172.264 91.8316L172.25 91.8184ZM168.47 108.783C168.737 108.16 169.092 107.578 169.523 107.055C169.305 108.399 168.743 109.663 167.893 110.726C167.996 110.059 168.195 109.411 168.483 108.8L168.47 108.783ZM138.829 88.3727C139.451 88.6411 140.032 88.9956 140.556 89.4258C139.885 89.3268 139.232 89.1324 138.617 88.8486C137.992 88.5828 137.409 88.228 136.885 87.7954C137.563 87.8962 138.222 88.0951 138.842 88.3859L138.829 88.3727ZM185.58 90.946L185.804 91.554C185.329 91.3247 184.885 91.036 184.482 90.6948C184.861 90.7443 185.233 90.8329 185.593 90.9592L185.58 90.946ZM155.361 105.628C155.984 105.893 156.566 106.246 157.088 106.677C156.417 106.578 155.763 106.386 155.145 106.104C154.523 105.834 153.941 105.478 153.418 105.046C154.096 105.146 154.755 105.347 155.374 105.641L155.361 105.628ZM182.385 109.558L182.689 109.704L181.654 109.783C181.221 109.564 180.815 109.295 180.446 108.981C181.122 109.084 181.779 109.283 182.398 109.571L182.385 109.558ZM172.004 73.3251C172.624 73.5964 173.206 73.9507 173.731 74.3782C172.388 74.1613 171.124 73.6012 170.061 72.7523C170.738 72.8516 171.397 73.049 172.017 73.3383L172.004 73.3251ZM156.811 90.2013C157.434 90.4702 158.015 90.8263 158.538 91.2588C157.194 91.0429 155.929 90.4811 154.868 89.6285C155.544 89.7296 156.203 89.9269 156.824 90.2145L156.811 90.2013ZM148.879 67.002C149.501 67.2721 150.082 67.6265 150.607 68.0551C149.264 67.8422 148 67.2816 146.941 66.4292C147.62 66.5291 148.282 66.7264 148.906 67.0152L148.879 67.002Z" fill="white"/>
<path d="M143.746 56.026C147.165 55.5193 150.637 48.619 151.237 43.913C151.276 43.587 145.949 33.4216 145.116 31.3021C144.944 30.8615 133.065 39.8328 133.065 39.8328C133.065 39.8328 136.149 43.7632 137.59 47.4777C137.692 47.7862 140.441 56.5107 143.746 56.026Z" fill="#D3766A"/>
<path d="M133.048 39.8327C133.048 39.8327 136.132 43.7631 137.577 47.4733C137.604 47.5482 137.78 48.0946 138.071 48.8745C144.178 45.7901 146.667 40.2822 147.672 36.6469C146.518 34.3336 145.443 32.1613 145.099 31.3021C144.927 30.8658 133.048 39.8327 133.048 39.8327Z" fill="#263238"/>
<path d="M142.371 14.7916C145.848 18.8145 149.324 33.3246 147.337 37.7838C144.451 44.2434 136.762 48.1254 130.54 43.9967C124.49 39.9913 120.296 21.0001 122.794 16.6466C126.469 10.231 137.242 8.85185 142.371 14.7916Z" fill="#D3766A"/>
<path d="M133.083 26.5785C133.523 26.6137 133.964 26.5785 134.405 26.5785C134.872 26.6422 135.348 26.5492 135.757 26.3141C135.872 26.2149 135.95 26.0809 135.98 25.9327C136.01 25.7845 135.991 25.6305 135.925 25.4945C135.753 25.246 135.517 25.048 135.243 24.921C134.969 24.7939 134.666 24.7425 134.365 24.7719C133.747 24.7355 133.138 24.9303 132.655 25.3183C132.553 25.4144 132.481 25.5378 132.447 25.6739C132.413 25.81 132.419 25.9529 132.464 26.0857C132.509 26.2185 132.591 26.3356 132.701 26.4229C132.811 26.5103 132.943 26.5643 133.083 26.5785Z" fill="#263238"/>
<path d="M133.47 28.7067C133.47 28.6671 133.559 28.7376 133.567 28.7817C133.73 29.7731 134.087 30.8835 135.044 31.0333C135.074 31.0333 135.083 31.0862 135.044 31.0906C133.929 31.1523 133.47 29.6761 133.47 28.7067Z" fill="#263238"/>
<path d="M134.149 27.4995C135.713 27.0588 136.471 30.227 135.03 30.6279C133.589 31.0289 132.84 27.8652 134.149 27.4995Z" fill="#263238"/>
<path d="M127.786 29.9273C127.786 29.892 127.72 29.9934 127.729 30.033C127.993 31.0024 128.134 32.1613 127.328 32.6768C127.302 32.6768 127.328 32.7429 127.35 32.7297C128.394 32.3419 128.192 30.8085 127.786 29.9273Z" fill="#263238"/>
<path d="M126.667 29.1166C125.063 29.3721 125.693 32.5579 127.178 32.3199C128.663 32.082 128.011 28.9006 126.667 29.1166Z" fill="#263238"/>
<path d="M125.041 27.5479C125.446 27.3597 125.84 27.1494 126.222 26.9178C126.67 26.7523 127.05 26.4422 127.301 26.0365C127.357 25.8947 127.363 25.7386 127.32 25.5927C127.277 25.4468 127.187 25.3193 127.064 25.2301C126.522 24.8776 125.896 25.0407 125.341 25.3139C124.775 25.5717 124.324 26.03 124.076 26.6005C124.024 26.7347 124.012 26.8811 124.043 27.0218C124.073 27.1625 124.144 27.2913 124.246 27.3921C124.349 27.4929 124.479 27.5614 124.62 27.5891C124.762 27.6168 124.908 27.6024 125.041 27.5479Z" fill="#263238"/>
<path d="M136.749 37.189C136.573 37.4754 136.414 37.8455 136.066 37.9601C135.698 38.0393 135.318 38.0393 134.951 37.9601C134.944 37.9594 134.936 37.9611 134.93 37.9649C134.923 37.9687 134.918 37.9744 134.915 37.9813C134.912 37.9881 134.912 37.9958 134.913 38.003C134.915 38.0103 134.919 38.0169 134.925 38.0218C135.11 38.1802 135.335 38.2856 135.575 38.3267C135.816 38.3678 136.063 38.3432 136.291 38.2553C136.478 38.1564 136.632 38.0038 136.733 37.817C136.833 37.6302 136.875 37.4177 136.855 37.2066C136.855 37.1493 136.775 37.1449 136.749 37.189Z" fill="#263238"/>
<path d="M135.021 34.5055C134.864 34.9517 134.617 35.3608 134.295 35.7072C133.972 36.0537 133.582 36.3301 133.149 36.5192C132.772 36.6893 132.373 36.805 131.963 36.8629C131.887 36.8801 131.808 36.889 131.73 36.8893C131.655 36.894 131.58 36.894 131.505 36.8893C131.451 36.8926 131.397 36.8775 131.352 36.8463C131.307 36.8151 131.274 36.7697 131.258 36.7175C131.256 36.6822 131.256 36.6469 131.258 36.6117V36.5236C131.06 35.7745 130.857 34.6112 130.857 34.6112C130.615 34.8139 129.364 35.7833 129.289 35.3823C128.703 32.0776 128.055 28.4027 128.17 24.9878C128.17 24.9633 128.179 24.9397 128.197 24.9224C128.214 24.905 128.238 24.8953 128.262 24.8953C128.287 24.8953 128.31 24.905 128.328 24.9224C128.345 24.9397 128.355 24.9633 128.355 24.9878C129.042 28.1427 129.17 31.399 129.813 34.5804C130.244 34.2263 130.723 33.9355 131.236 33.7168C131.351 33.7168 131.584 35.9728 131.703 36.2989C131.702 36.3106 131.702 36.3224 131.703 36.3341C133.025 36.1931 133.871 35.5806 134.898 34.4394C134.964 34.3645 135.061 34.4129 135.021 34.5055Z" fill="#263238"/>
<path d="M132.316 36.3738C132.859 36.8118 133.505 37.1031 134.193 37.2198C134.57 37.2722 134.953 37.206 135.29 37.0303C136.022 36.6381 135.872 35.9155 135.581 35.3339C135.423 35.0273 135.229 34.7404 135.004 34.479C134.333 35.3816 133.391 36.0456 132.316 36.3738Z" fill="#263238"/>
<path d="M134.193 37.2198C134.57 37.2722 134.953 37.206 135.29 37.0303C136.022 36.6382 135.872 35.9155 135.581 35.3339C134.762 35.6203 134.07 36.3914 134.193 37.2198Z" fill="#FF97B8"/>
<path d="M121.463 22.2956C127.632 24.8777 133.871 17.7351 133.871 17.7351C134.578 18.8191 135.616 19.6458 136.831 20.092C138.046 20.5382 139.373 20.5801 140.613 20.2114C140.613 20.2114 143.574 29.143 145.989 28.6055C149.659 27.8211 148.192 15.1045 146.531 12.8925C144.87 10.6805 141.609 10.6894 141.609 10.6894C141.609 10.6894 140.988 8.83429 138.353 7.56967C135.444 6.16846 127.337 10.5616 127.337 10.5616C126.601 9.50618 125.627 8.63834 124.495 8.02794C124.221 7.87427 123.92 7.7777 123.608 7.74409C123.296 7.71048 122.98 7.74051 122.68 7.83238C122.381 7.92425 122.102 8.07603 121.863 8.27855C121.623 8.48106 121.427 8.73009 121.287 9.01054C121.889 9.58957 122.351 10.2977 122.64 11.0815C123.631 13.6724 121.441 14.1263 120.952 11.6896C120.74 10.7853 120.858 9.83472 121.287 9.01054C119.877 7.64458 118.004 7.49477 117.11 8.56991C115.466 10.5395 116.33 20.1541 121.463 22.2956Z" fill="#263238"/>
<path d="M136.595 33.6109C137.354 33.3676 138.029 32.916 138.544 32.3076C139.059 31.6991 139.393 30.9583 139.507 30.1695C139.622 29.3807 139.513 28.5755 139.192 27.8457C138.872 27.1159 138.353 26.4908 137.694 26.0416C137.036 25.5923 136.264 25.337 135.468 25.3047C134.671 25.2723 133.882 25.4643 133.189 25.8586C132.496 26.253 131.928 26.834 131.55 27.5354C131.171 28.2368 130.997 29.0304 131.047 29.8259C131.089 30.4719 131.277 31.1 131.598 31.6623C131.918 32.2247 132.363 32.7066 132.898 33.0715C133.432 33.4363 134.043 33.6745 134.684 33.768C135.324 33.8615 135.978 33.8078 136.595 33.6109ZM134.162 26.0541C134.448 25.9616 134.744 25.9039 135.044 25.8823C135.983 25.8156 136.912 26.1098 137.642 26.7049C138.371 27.2999 138.847 28.151 138.97 29.0844C139.094 30.0177 138.857 30.9632 138.307 31.7277C137.758 32.4922 136.937 33.0182 136.013 33.1984C135.089 33.3786 134.131 33.1995 133.334 32.6974C132.538 32.1954 131.963 31.4083 131.727 30.4969C131.49 29.5854 131.611 28.6182 132.064 27.7926C132.516 26.967 133.267 26.3452 134.162 26.0541Z" fill="#FA541C"/>
<path d="M127.205 35.3911C128.729 34.8182 129.522 32.7473 128.967 30.5838C128.731 29.5487 128.174 28.6144 127.376 27.9135C127.054 27.5888 126.653 27.3531 126.213 27.2297C125.772 27.1063 125.307 27.0993 124.863 27.2094C124.419 27.3196 124.011 27.543 123.679 27.858C123.348 28.1729 123.103 28.5686 122.97 29.0063C122.597 30.0005 122.543 31.0865 122.816 32.1128C123.38 34.3864 125.217 35.8978 126.914 35.4748C127.013 35.4557 127.11 35.4277 127.205 35.3911ZM124.821 27.8342L125.028 27.7725C125.384 27.7006 125.752 27.7155 126.101 27.816C126.45 27.9165 126.77 28.0996 127.033 28.3498C127.737 28.9744 128.228 29.8031 128.438 30.7204C128.927 32.6944 128.2 34.5803 126.804 34.924C125.407 35.2677 123.882 33.9458 123.393 31.9762C123.148 31.067 123.194 30.1037 123.525 29.2222C123.632 28.9129 123.802 28.6295 124.025 28.3904C124.249 28.1512 124.52 27.9617 124.821 27.8342Z" fill="#FA541C"/>
<path d="M131.281 30.2841L131.554 29.7862C130.818 29.3764 129.214 28.9534 128.408 30.2268L128.892 30.5265C129.611 29.3852 131.214 30.2445 131.281 30.2841Z" fill="#FA541C"/>
<path d="M150.087 27.6846L150.527 27.3321C150.36 27.125 148.875 25.3051 147.593 25.3492C146.39 25.3933 139.049 27.5524 138.736 27.6625L138.899 28.2089C141.005 27.5832 146.681 25.9485 147.61 25.9176C148.465 25.8868 149.686 27.1822 150.087 27.6846Z" fill="#FA541C"/>
<path d="M144.416 27.7769C144.416 27.7769 145.601 22.1016 148.051 22.3439C150.501 22.5863 150.915 29.8875 148.954 31.7514C148.72 32.0076 148.437 32.2138 148.121 32.3576C147.805 32.5014 147.463 32.5797 147.116 32.588C146.769 32.5962 146.424 32.5341 146.101 32.4055C145.779 32.2769 145.486 32.0844 145.24 31.8395L144.416 27.7769Z" fill="#D3766A"/>
<path d="M148.117 24.4415C148.152 24.4195 148.183 24.4679 148.157 24.4988C146.804 25.8559 146.597 27.7374 146.663 29.5616C146.892 28.7509 147.412 28.134 148.47 28.3675C148.522 28.3675 148.509 28.4601 148.47 28.4733C148.143 28.5034 147.835 28.6347 147.587 28.8488C147.338 29.0629 147.163 29.3491 147.086 29.6674C146.957 30.1987 146.884 30.7423 146.87 31.2889C146.87 31.4696 146.562 31.5048 146.544 31.2889C146.546 31.2743 146.546 31.2595 146.544 31.2449C145.601 29.2091 145.971 25.6048 148.117 24.4415Z" fill="#263238"/>
<path d="M114.206 67.6102C113.091 64.6756 87.2437 69.9896 88.2747 74.4885C92.0598 90.9681 102.608 105.694 105.274 109.06C108.773 113.467 115.735 112.489 118.273 109.818C121.952 105.945 115.308 70.5184 114.206 67.6102Z" fill="#D3766A"/>
<path d="M116.026 75.7001C116.6 77.2794 117.055 78.8997 117.387 80.5471C117.762 82.1774 118.088 83.8166 118.352 85.4646C118.875 88.7982 119.169 92.1636 119.234 95.5374C119.282 97.4233 119.234 99.3048 119.234 101.191C119.234 101.235 119.163 101.23 119.163 101.191C119.163 99.5207 119.062 97.8375 118.925 96.1719C118.789 94.5063 118.621 92.8099 118.405 91.1399C117.987 87.8572 117.524 84.5789 116.929 81.3226C116.765 80.409 116.593 79.4984 116.414 78.5907C116.224 77.6477 116.008 76.7092 115.885 75.753C115.885 75.6825 115.995 75.6208 116.026 75.7001Z" fill="#263238"/>
<path d="M120.441 21.1631C120.611 23.407 120.947 25.6354 121.446 27.8298C121.529 28.2044 121.622 28.5877 121.714 28.9667C122.084 30.4736 122.525 31.9894 123.036 33.4479C123.154 33.8004 123.277 34.1485 123.406 34.4922C124.971 38.7178 127.037 42.3531 129.364 43.8953C129.955 44.2915 130.582 44.6308 131.236 44.9087C134.571 42.9636 137.357 40.2018 139.33 36.8833C141.304 33.5647 142.4 29.7987 142.517 25.9395L143.222 25.7456C143.111 25.5738 142.997 25.3975 142.887 25.2125C142.777 25.0274 142.64 24.7939 142.521 24.5736C142.344 18.9006 140.053 13.4986 136.097 9.42903C130.558 7.93969 123.926 10.068 121.137 14.9281C120.459 16.131 120.251 18.3959 120.441 21.1631Z" fill="#D3766A"/>
<path d="M132.052 25.4461C132.52 25.4704 132.989 25.4704 133.457 25.4461C133.999 25.4461 134.431 25.4858 134.894 25.1641C135.018 25.0587 135.103 24.9142 135.136 24.7542C135.168 24.5942 135.144 24.4281 135.07 24.2829C134.731 23.6836 134.07 23.5294 133.418 23.5162C132.763 23.4774 132.118 23.6831 131.607 24.0934C131.493 24.1938 131.412 24.3253 131.372 24.4715C131.333 24.6177 131.337 24.7722 131.384 24.9161C131.432 25.0599 131.52 25.1868 131.639 25.281C131.757 25.3752 131.901 25.4326 132.052 25.4461Z" fill="#263238"/>
<path d="M132.461 27.7241C132.461 27.6845 132.554 27.7594 132.563 27.799C132.735 28.8522 133.114 30.0286 134.127 30.1873C134.158 30.1873 134.167 30.2445 134.127 30.249C132.946 30.293 132.461 28.7288 132.461 27.7241Z" fill="#263238"/>
<path d="M133.18 26.4243C134.836 25.9617 135.638 29.3105 134.105 29.7379C132.571 30.1653 131.792 26.8121 133.18 26.4243Z" fill="#263238"/>
<path d="M126.438 28.9931C126.438 28.9578 126.367 29.0636 126.381 29.1077C126.663 30.1343 126.821 31.3593 125.94 31.9277C125.914 31.9277 125.94 31.9982 125.962 31.985C127.081 31.5488 126.87 29.9272 126.438 28.9931Z" fill="#263238"/>
<path d="M125.253 28.1339C123.556 28.4071 124.226 31.7824 125.799 31.5312C127.372 31.28 126.676 27.9048 125.253 28.1339Z" fill="#263238"/>
<path d="M123.534 26.4727C123.975 26.2832 124.358 26.032 124.781 25.8073C125.253 25.6339 125.656 25.3104 125.927 24.8864C125.985 24.7368 125.991 24.5723 125.946 24.4185C125.9 24.2647 125.805 24.1302 125.676 24.036C125.098 23.6614 124.437 23.8333 123.851 24.1241C123.257 24.3987 122.786 24.8839 122.529 25.4857C122.479 25.6251 122.47 25.776 122.503 25.9204C122.537 26.0649 122.61 26.1968 122.716 26.3006C122.822 26.4045 122.955 26.4758 123.1 26.5063C123.245 26.5368 123.396 26.5251 123.534 26.4727Z" fill="#263238"/>
<path d="M135.934 36.6866C135.744 36.9863 135.577 37.3784 135.207 37.5018C134.819 37.5877 134.418 37.5877 134.03 37.5018C134.022 37.5016 134.015 37.5036 134.008 37.5076C134.001 37.5117 133.996 37.5176 133.993 37.5247C133.99 37.5317 133.988 37.5396 133.99 37.5472C133.991 37.5549 133.994 37.5621 133.999 37.5679C134.196 37.7363 134.435 37.8481 134.69 37.8916C134.945 37.935 135.208 37.9084 135.449 37.8147C135.647 37.7093 135.809 37.5475 135.915 37.3498C136.021 37.1521 136.066 36.9275 136.044 36.7043C136.048 36.6426 135.964 36.6426 135.934 36.6866Z" fill="#263238"/>
<path d="M134.101 33.8401C133.936 34.3136 133.675 34.7479 133.335 35.1157C132.994 35.4835 132.581 35.7768 132.122 35.9771C131.723 36.1572 131.3 36.2789 130.866 36.3385C130.784 36.3571 130.7 36.3675 130.615 36.3693C130.537 36.3742 130.459 36.3742 130.382 36.3693C130.324 36.373 130.266 36.3572 130.218 36.3245C130.17 36.2918 130.135 36.2439 130.117 36.1886C130.113 36.1535 130.113 36.118 130.117 36.0829V35.9904C129.906 35.1972 129.677 33.9635 129.677 33.9635C129.421 34.1794 128.095 35.206 128.02 34.783C127.399 31.258 126.698 27.3848 126.83 23.7672C126.83 23.7415 126.84 23.7169 126.858 23.6987C126.877 23.6805 126.901 23.6703 126.927 23.6703C126.953 23.6703 126.977 23.6805 126.996 23.6987C127.014 23.7169 127.024 23.7415 127.024 23.7672C127.755 27.1072 127.905 30.5574 128.571 33.9018C129.042 33.537 129.563 33.2404 130.117 33.0205C130.236 33.0205 130.487 35.4087 130.611 35.7568C130.609 35.7685 130.609 35.7804 130.611 35.7921C131.99 35.6423 132.906 34.9989 133.99 33.7828C134.043 33.6947 134.145 33.7431 134.101 33.8401Z" fill="#263238"/>
<path d="M131.236 35.8229C131.812 36.2828 132.496 36.5864 133.224 36.7042C133.622 36.7613 134.027 36.6903 134.382 36.5015C135.162 36.0873 134.999 35.3206 134.691 34.7081C134.525 34.3826 134.321 34.0779 134.083 33.8004C133.374 34.7613 132.377 35.4701 131.236 35.8229Z" fill="#263238"/>
<path d="M133.228 36.7173C133.626 36.7744 134.032 36.7035 134.387 36.5146C135.167 36.1004 135.004 35.3337 134.695 34.7213C133.832 35.0253 133.096 35.8361 133.228 36.7173Z" fill="#FF97B8"/>
<path d="M119.745 20.912C119.978 21.009 120.212 21.0927 120.441 21.1632C126.751 23.1196 132.889 16.0783 132.889 16.0783C133.634 17.2301 134.732 18.1099 136.019 18.5864C137.305 19.0629 138.711 19.1105 140.027 18.7221C140.711 20.7384 141.549 22.6991 142.534 24.5869C142.416 20.8401 141.374 17.1804 139.501 13.9328C137.629 10.6852 134.984 7.95007 131.8 5.97022C129.79 6.6755 127.835 7.52672 125.949 8.51707C125.168 7.39935 124.135 6.48028 122.935 5.83363C122.646 5.67066 122.326 5.56807 121.996 5.53208C121.666 5.4961 121.332 5.52745 121.015 5.62426C120.697 5.72106 120.402 5.88129 120.148 6.09526C119.895 6.30924 119.687 6.57249 119.538 6.86911C120.174 7.48728 120.663 8.24011 120.97 9.07227C122.018 11.813 119.701 12.2933 119.185 9.71559C118.957 8.75665 119.082 7.74776 119.538 6.87351C118.044 5.43264 116.061 5.27402 115.131 6.43288C113.395 8.4686 114.303 18.6428 119.745 20.912Z" fill="#263238"/>
<path d="M131.514 25.142C132.247 24.5309 133.157 24.1697 134.109 24.1109C134.396 24.0923 134.684 24.1027 134.969 24.1418C135.683 24.2341 136.364 24.4964 136.956 24.9065C137.548 25.3167 138.033 25.8629 138.37 26.4992C138.468 26.6771 138.55 26.8628 138.617 27.0544C138.77 27.4614 138.861 27.8893 138.886 28.3234C138.947 29.3233 138.675 30.3153 138.111 31.1433C137.547 31.9713 136.724 32.5882 135.771 32.8971C135.413 33.0096 135.043 33.0791 134.669 33.1042H134.387C133.307 33.1063 132.262 32.7211 131.441 32.0186C130.621 31.3161 130.079 30.3428 129.915 29.2752C129.915 29.1474 129.884 29.0196 129.875 28.8874C129.866 28.7552 129.875 28.6935 129.875 28.601C129.876 27.9393 130.024 27.2861 130.307 26.6881C130.591 26.0901 131.003 25.5622 131.514 25.142ZM134.634 32.5006C135.581 32.4399 136.474 32.0362 137.145 31.3649C137.816 30.6936 138.22 29.8007 138.28 28.8533C138.341 27.906 138.054 26.969 137.474 26.2178C136.893 25.4666 136.059 24.9525 135.127 24.7719C134.804 24.7092 134.474 24.6884 134.145 24.7102C133.821 24.7313 133.502 24.792 133.193 24.8909C132.8 25.0173 132.429 25.2063 132.096 25.4505C131.411 25.9463 130.906 26.6514 130.656 27.4593C130.407 28.2673 130.427 29.1344 130.714 29.9299C131 30.7255 131.537 31.4064 132.244 31.8701C132.951 32.3337 133.79 32.555 134.634 32.5006Z" fill="#FA541C"/>
<path d="M121.366 28.0193L121.446 27.8298C121.715 27.2103 122.179 26.6953 122.767 26.3625C122.957 26.2569 123.16 26.1769 123.371 26.1245C123.678 26.0498 123.996 26.0319 124.31 26.0717C124.949 26.161 125.547 26.4352 126.033 26.8604C126.397 27.1707 126.712 27.5348 126.967 27.94C127.161 28.2402 127.325 28.559 127.456 28.8917C127.546 29.1062 127.619 29.3272 127.676 29.5527C127.692 29.5974 127.705 29.643 127.716 29.6893C127.977 30.6884 127.949 31.7411 127.636 32.7252C127.506 33.181 127.276 33.602 126.963 33.9579C126.649 34.3138 126.261 34.5956 125.825 34.783C125.733 34.8182 125.64 34.8447 125.543 34.8711C125.179 34.9539 124.801 34.9631 124.432 34.898C124.064 34.8329 123.712 34.6949 123.398 34.4922C122.275 33.7587 121.485 32.6153 121.194 31.3064C120.907 30.2196 120.967 29.0701 121.366 28.0193ZM121.807 31.161C122.007 32.0204 122.435 32.8102 123.045 33.4479C123.332 33.7827 123.703 34.0362 124.119 34.1831C124.535 34.33 124.982 34.3652 125.416 34.2851C126.896 33.9193 127.667 31.9233 127.147 29.8347C126.925 28.8636 126.406 27.9858 125.662 27.3231C125.382 27.0583 125.043 26.8645 124.673 26.7579C124.302 26.6514 123.912 26.6351 123.534 26.7106C123.461 26.728 123.389 26.7501 123.318 26.7767C122.999 26.9127 122.712 27.1139 122.475 27.3673C122.239 27.6208 122.057 27.9209 121.943 28.2484C121.849 28.4802 121.778 28.7208 121.732 28.9666C121.591 29.6935 121.611 30.4424 121.789 31.161H121.807Z" fill="#FA541C"/>
<path d="M130.144 29.3721L130.43 28.8434C129.65 28.4027 127.949 27.9621 127.099 29.328L127.61 29.6453C128.372 28.4203 130.069 29.3325 130.144 29.3721Z" fill="#FA541C"/>
<path d="M138.044 26.5962L138.216 27.1734L138.617 27.0544C139.608 26.7636 141.071 26.3406 142.53 25.9352L143.235 25.7414C143.125 25.5695 143.01 25.3933 142.9 25.2082L142.543 25.3095C140.78 25.7942 139.075 26.2921 138.37 26.4992L138.044 26.5962Z" fill="#FA541C"/>
<g opacity="0.3">
<path d="M114.933 47.46C119.323 48.4269 123.901 48.0703 128.089 46.4351C132.276 44.8 135.884 41.9599 138.458 38.2739C141.031 34.588 142.453 30.2217 142.545 25.7274C142.636 21.2331 141.393 16.8125 138.972 13.0247C136.551 9.23697 133.062 6.25216 128.944 4.44775C124.827 2.64335 120.267 2.10041 115.842 2.88759C111.416 3.67477 107.323 5.75671 104.08 8.87014C100.838 11.9836 98.5913 15.9886 97.625 20.3788C96.9829 23.2935 96.9213 26.3061 97.4436 29.2446C97.966 32.183 99.0621 34.9899 100.669 37.5047C102.277 40.0195 104.363 42.193 106.811 43.9012C109.258 45.6094 112.018 46.8187 114.933 47.46Z" fill="white"/>
<path d="M139.754 36.1755C136.875 41.4308 132.038 45.3375 126.294 47.0463C120.551 48.755 114.365 48.1278 109.082 45.301L139.754 36.1755Z" fill="#EBEBEB"/>
<path d="M139.102 13.2494L97.0919 25.7502C97.0554 23.9451 97.2329 22.1421 97.6207 20.3789C98.06 18.356 98.7793 16.4043 99.7578 14.5801L130.769 5.34889C134.177 7.22647 137.046 9.94665 139.102 13.2494Z" fill="#EBEBEB"/>
<path d="M142.38 27.9181L102.366 39.8151C101.413 38.6701 100.573 37.4349 99.8591 36.127L142.468 23.4456C142.591 24.9356 142.561 26.4341 142.38 27.9181Z" fill="#EBEBEB"/>
<path d="M140.556 15.999L97.3738 28.8522C97.3298 28.579 97.2901 28.3058 97.2593 28.0326L140.212 15.2543C140.331 15.4967 140.45 15.7434 140.556 15.999Z" fill="#EBEBEB"/>
<path d="M123.578 2.85486L104.411 8.55664C104.909 8.09398 105.433 7.67538 105.975 7.23475L121.543 2.60811C122.225 2.6554 122.904 2.73775 123.578 2.85486Z" fill="#EBEBEB"/>
</g>
<path d="M111.805 75.5557L105.969 74.2706L111.621 48.6106L117.456 49.8957L111.805 75.5557Z" fill="#EBEBEB"/>
<path d="M95.1399 19.8324C96.2145 14.9523 98.7121 10.5004 102.317 7.03969C105.922 3.579 110.472 1.26496 115.392 0.390176C120.311 -0.48461 125.38 0.119152 129.957 2.12511C134.534 4.13108 138.413 7.44915 141.104 11.6597C143.795 15.8703 145.177 20.7843 145.075 25.7804C144.973 30.7764 143.392 35.63 140.532 39.7276C137.672 43.8251 133.661 46.9825 129.006 48.8004C124.352 50.6183 119.263 51.0152 114.382 49.9408C107.839 48.4979 102.137 44.5159 98.5283 38.87C94.92 33.2242 93.7013 26.3766 95.1399 19.8324ZM114.933 47.46C119.323 48.4278 123.902 48.0719 128.089 46.4375C132.277 44.803 135.886 41.9634 138.46 38.2777C141.034 34.592 142.457 30.2258 142.549 25.7314C142.641 21.2369 141.398 16.816 138.978 13.0279C136.557 9.2397 133.068 6.25442 128.951 4.44956C124.834 2.6447 120.274 2.10134 115.848 2.8882C111.422 3.67505 107.328 5.75678 104.086 8.87011C100.843 11.9834 98.596 15.9885 97.6295 20.3788C96.9873 23.2932 96.9255 26.3055 97.4476 29.2437C97.9696 32.182 99.0654 34.9886 100.672 37.5034C102.279 40.0181 104.365 42.1918 106.812 43.9001C109.259 45.6085 112.019 46.8182 114.933 47.46Z" fill="#455A64"/>
<path d="M109.394 93.6119L100.568 91.6687L105.574 68.9189L114.404 70.862L109.394 93.6119Z" fill="#263238"/>
<path d="M105.543 22.2868C105.553 22.2609 105.56 22.2344 105.565 22.2074C105.671 21.8285 105.451 22.5732 105.53 22.3264C105.609 22.0797 105.724 21.7316 105.834 21.4451C106.22 20.4229 106.691 19.4353 107.244 18.4929C107.319 18.3607 107.403 18.2285 107.478 18.0963C107.504 18.0523 107.284 18.4048 107.478 18.1272L107.632 17.8892C107.834 17.5852 108.042 17.2856 108.258 17.008C108.735 16.3632 109.254 15.7508 109.813 15.175L110.218 14.7696C110.403 14.5889 110.002 14.9679 110.258 14.7343L110.514 14.5008C110.844 14.2144 111.183 13.9368 111.536 13.6724C111.888 13.408 112.307 13.1172 112.708 12.866C112.893 12.7515 113.078 12.6413 113.267 12.5356C113.594 12.3461 113.126 12.6017 113.369 12.4783L113.717 12.302C114.77 11.7841 115.871 11.3708 117.004 11.0683H117.061L117.185 11.0418L117.691 10.9317C118.022 10.8656 118.348 10.8083 118.683 10.7598C119.383 10.6597 120.087 10.595 120.793 10.5659C120.99 10.5437 121.18 10.483 121.352 10.3873C121.525 10.2917 121.677 10.1629 121.8 10.0085C122.048 9.69653 122.163 9.29872 122.118 8.90256C122.073 8.50639 121.872 8.14432 121.56 7.89601C121.248 7.64769 120.85 7.53346 120.454 7.57846C115.952 7.71774 111.647 9.45643 108.31 12.4827C106.094 14.5584 104.361 17.0961 103.234 19.9162C102.976 20.5457 102.762 21.192 102.591 21.8505C102.53 22.2442 102.628 22.646 102.862 22.968C103.097 23.29 103.449 23.5061 103.842 23.569C104.235 23.6218 104.633 23.5212 104.953 23.288C105.273 23.0549 105.491 22.7073 105.561 22.3176L105.543 22.2868Z" fill="white"/>
<path d="M104.926 26.7151C104.881 27.0048 104.752 27.2748 104.553 27.4907C104.355 27.7067 104.097 27.8589 103.812 27.9281C103.527 27.9973 103.228 27.9803 102.953 27.8794C102.678 27.7784 102.439 27.5981 102.266 27.3611C102.094 27.1241 101.995 26.8413 101.984 26.5483C101.972 26.2554 102.047 25.9656 102.201 25.7156C102.354 25.4657 102.578 25.2668 102.844 25.1443C103.111 25.0218 103.407 24.9811 103.697 25.0274C104.083 25.0892 104.429 25.3014 104.66 25.6176C104.89 25.9339 104.986 26.3284 104.926 26.7151Z" fill="white"/>
<path d="M90.0109 79.6393C90.0109 79.6393 83.7011 69.2669 91.5575 59.3703C94.7918 55.2988 102.424 47.9975 117.907 49.0154C121.582 49.2578 126.645 52.2056 120.503 53.9901C116.14 55.2592 112.99 54.7436 110.584 55.9421C110.584 55.9421 116.581 60.4586 116.193 64.1291C116.021 65.7682 115.894 69.3506 114.946 72.7611C114.946 72.7611 113.704 73.6423 112.695 73.4925C112.695 73.4925 109.976 81.3358 100.198 83.746L90.0109 79.6393Z" fill="#D3766A"/>
<path d="M94.8754 58.0396C97.4047 57.0306 102.807 54.9861 107.808 54.8451C113.364 54.6908 124.111 55.8938 124.177 59.996C124.23 63.0056 120.088 62.9042 120.088 62.9042C120.088 62.9042 124.424 64.3363 123.873 67.0638C123.376 69.5489 120.177 69.2669 120.177 69.2669C120.177 69.2669 122.657 70.5888 121.714 72.8889C120.582 75.6561 115.572 72.4483 112.02 74.2461C111.201 74.6691 94.8754 58.0396 94.8754 58.0396Z" fill="#D3766A"/>
<path d="M107.002 60.7406C109.535 60.1854 115.62 60.3969 120.036 62.8072C120.137 62.8601 120.15 62.9658 120.036 62.935C115.793 61.6977 111.417 60.9787 107.002 60.7935C106.962 60.7935 106.962 60.7715 107.002 60.7406Z" fill="#263238"/>
<path d="M107.31 66.3454C109.548 66.0899 115.81 66.5878 120.199 69.1831C120.3 69.2404 120.304 69.3461 120.199 69.3109C116.023 67.8557 111.697 66.8786 107.301 66.3983C107.294 66.3971 107.288 66.3932 107.284 66.3875C107.28 66.3817 107.278 66.3745 107.279 66.3675C107.28 66.3605 107.284 66.3542 107.29 66.3501C107.296 66.3459 107.303 66.3443 107.31 66.3454Z" fill="#263238"/>
<path d="M98.2904 84.4203C100.533 83.8879 102.699 83.069 104.732 81.9836C106.78 80.8754 108.593 79.3787 110.068 77.5773C110.509 77.0265 110.95 76.4537 111.333 75.8676C111.716 75.2816 112.139 74.6162 112.593 74.0346C112.629 73.9905 112.712 74.0346 112.686 74.0743C112.175 75.2973 111.547 76.4676 110.809 77.5685C110.147 78.5979 109.356 79.5382 108.456 80.3665C106.678 81.9485 104.571 83.1164 102.287 83.7858C100.99 84.147 99.6624 84.3874 98.3212 84.504C98.2551 84.5216 98.2287 84.4335 98.2904 84.4203Z" fill="#263238"/>
<path d="M162.609 51.2274C173.96 66.4689 192.903 106.192 195.688 112.035C197.578 116 176.855 126.443 175.978 123.562C174.85 119.869 156.322 71.1263 153.726 53.3557C152.307 43.6133 158.683 45.953 162.609 51.2274Z" fill="#D3766A"/>
<path d="M175.419 121.579C175.899 125.17 178.34 132.405 180.155 133.511C181.971 134.617 191.51 134.392 196.318 134.392C201.125 134.392 202.046 133.048 201.989 131.396C201.931 129.744 191.823 129.426 191.823 129.426C191.823 129.426 205.298 133.269 208.686 133.917C212.075 134.564 219.878 136.516 221.024 133.709C221.531 132.44 219.394 131.158 219.394 131.158C219.394 131.158 222.668 132.114 223.192 130.488C223.782 128.633 221.178 127.615 221.178 127.615C221.178 127.615 223.227 128.025 223.276 126.514C223.364 123.121 210.55 121.464 210.55 121.464C210.55 121.464 220.359 126.241 220.685 123.482C221.125 119.671 201.015 115.489 198.922 113.828C197.399 112.559 195.975 111.175 194.661 109.691L175.419 121.579Z" fill="#D3766A"/>
<path d="M201.918 132.216C201.952 131.981 201.93 131.743 201.853 131.519C201.777 131.295 201.648 131.093 201.478 130.929C201.132 130.612 200.736 130.356 200.305 130.171C199.416 129.793 198.495 129.498 197.551 129.29C195.657 128.809 193.714 128.47 191.779 127.968C193.773 127.938 195.763 128.16 197.701 128.629C198.692 128.856 199.645 129.221 200.535 129.713C200.995 129.966 201.398 130.311 201.72 130.726C201.878 130.937 201.979 131.184 202.014 131.445C202.049 131.706 202.016 131.971 201.918 132.216Z" fill="#263238"/>
<path d="M219.363 131.14C217.975 130.801 216.609 130.413 215.247 130.017C213.886 129.62 212.529 129.206 211.172 128.796L207.113 127.527C205.761 127.087 204.408 126.681 203.042 126.271C204.46 126.427 205.866 126.679 207.25 127.025C208.642 127.342 210.008 127.739 211.37 128.153C212.731 128.567 214.08 129.034 215.41 129.528C216.741 130.021 218.085 130.541 219.363 131.14Z" fill="#263238"/>
<path d="M206.311 122.901C207.618 122.983 208.917 123.162 210.198 123.438C211.482 123.694 212.752 124.02 214 124.416C215.252 124.805 216.48 125.264 217.68 125.791C218.883 126.306 220.048 126.906 221.165 127.589C219.927 127.148 218.72 126.686 217.49 126.267C216.261 125.849 215.036 125.434 213.798 125.055C212.559 124.676 211.321 124.302 210.074 123.936C208.827 123.57 207.576 123.253 206.311 122.901Z" fill="#263238"/>
<path d="M208.294 119.693C210.399 119.862 212.473 120.307 214.463 121.015C216.472 121.68 218.385 122.608 220.152 123.773C218.16 123.064 216.221 122.315 214.243 121.654C212.264 120.993 210.303 120.341 208.294 119.693Z" fill="#263238"/>
<path d="M157.785 77.3525L180.786 76.718C180.786 76.718 168.25 56.7662 161.534 49.4473C154.524 41.8243 150.708 42.4809 153.101 55.9862C155.511 69.5842 157.785 77.3525 157.785 77.3525Z" fill="#FA541C"/>
<path d="M172.017 73.3383C172.638 73.6096 173.219 73.9639 173.744 74.3914C172.401 74.1745 171.137 73.6145 170.074 72.7655C170.746 72.8619 171.4 73.0548 172.017 73.3383ZM159.173 58.7269C159.438 58.1033 159.793 57.5215 160.226 56.9997C160.014 58.3437 159.451 59.6082 158.595 60.6657C158.692 59.9948 158.887 59.3416 159.173 58.7269ZM169.779 63.0628C170.03 63.6919 170.19 64.3536 170.254 65.028C169.456 63.9269 168.96 62.6354 168.818 61.2826C169.224 61.8257 169.547 62.4255 169.779 63.0628ZM159.644 72.0693C159.897 72.699 160.056 73.3627 160.116 74.0389C159.322 72.9352 158.827 71.645 158.679 70.2935C159.087 70.836 159.415 71.434 159.653 72.0693H159.644ZM152.902 45.8737C153.013 46.1028 153.114 46.3364 153.211 46.5743C153.459 47.2043 153.62 47.8656 153.687 48.5395C153.281 48.0014 152.955 47.4078 152.717 46.777C152.695 46.7197 152.678 46.6669 152.66 46.6096C152.723 46.3577 152.807 46.1115 152.911 45.8737H152.902Z" fill="white"/>
<path d="M159.225 73.3516C159.772 73.2723 160.331 73.2723 160.878 73.2459L162.574 73.1533C163.714 73.0975 164.858 73.052 166.007 73.0167C168.298 72.9462 170.585 72.8669 172.872 72.8361C173.502 72.8361 174.132 72.8361 174.762 72.8361C175.392 72.8361 176.084 72.9022 176.745 72.9066C176.785 72.9066 176.78 72.9683 176.745 72.9683C176.181 73.0035 175.617 73.0872 175.049 73.1225C174.48 73.1577 173.89 73.193 173.308 73.215C172.162 73.2591 171.017 73.2987 169.871 73.3252C167.619 73.378 165.363 73.4397 163.112 73.4441H161.199C160.543 73.4441 159.878 73.4794 159.217 73.4221C159.199 73.4089 159.19 73.356 159.225 73.3516Z" fill="#263238"/>
<path d="M153.325 62.393C153.325 62.349 153.378 62.3225 153.4 62.3666C153.827 63.1524 154.192 63.97 154.493 64.8121C154.414 64.4111 154.321 64.0101 154.246 63.6048C153.995 62.3093 153.766 61.005 153.51 59.7096C153.513 59.7018 153.518 59.6951 153.525 59.6903C153.531 59.6855 153.539 59.683 153.548 59.683C153.556 59.683 153.564 59.6855 153.571 59.6903C153.577 59.6951 153.582 59.7018 153.585 59.7096C154.18 61.9392 154.872 64.1467 155.401 66.394C155.929 68.6412 156.463 70.8884 156.956 73.1444C157.225 74.3914 157.467 75.9469 157.74 77.1895C158.406 77.2688 159.261 77.1895 159.979 77.282C160.04 77.282 160.023 77.3921 159.979 77.3921C159.221 77.4142 158.318 77.586 157.52 77.5375C157.419 77.5375 155.489 69.5225 154.687 65.6845C154.193 64.5918 153.735 63.499 153.325 62.393Z" fill="#263238"/>
<path d="M136.965 49.932C137.286 50.9851 137.652 52.025 138.071 53.0428C138.42 53.9598 138.849 54.8445 139.353 55.6866C140.305 57.1892 141.767 58.4318 143.623 58.4274C145.385 58.4274 146.998 57.4051 148.126 56.1008C149.36 54.6776 150.179 52.893 150.915 51.1746C151.356 50.1126 151.796 49.0287 152.149 47.9315C152.329 47.3763 152.519 46.8211 152.678 46.2571C152.836 45.6931 152.973 45.1247 153.167 44.5739C153.167 44.5298 153.264 44.5342 153.25 44.5739C152.924 45.8429 151.977 49.8615 151.598 50.8837C150.902 52.7564 150.117 54.6908 148.862 56.2683C147.672 57.7576 146.055 58.8856 144.12 59.0707C142.186 59.2558 140.529 58.2379 139.463 56.7045C138.836 55.7386 138.347 54.6901 138.009 53.5892C137.599 52.3819 137.255 51.1437 136.943 49.9055C136.925 49.9232 136.965 49.9188 136.965 49.932Z" fill="#263238"/>
<path d="M75.864 137.105H110.033L111.558 107.067H75.864V137.105Z" fill="#DBDBDB"/>
<path d="M75.8637 107.067L63.5894 91.7001L53.8214 107.067L55.3462 137.105H75.8637V107.067Z" fill="#C7C7C7"/>
<path d="M99.631 86.8208H63.1559L50.0001 108.282H54.236L63.1559 93.4249L73.4432 110.054H114.569L99.631 86.8208Z" fill="#A6A6A6"/>
<path d="M95.4046 93.6107H103.248L107.431 98.6233H98.3779L95.4046 93.6107Z" fill="#C7C7C7"/>
<path d="M101.346 97.7656V103.869H105.711V97.7656L103.529 95.0354L101.346 97.7656Z" fill="#DBDBDB"/>
<path d="M101.346 97.761H97.9157L101.346 103.87V97.761Z" fill="#C7C7C7"/>
<path d="M102.399 97.8611H104.882V102.049H102.399V97.8611Z" fill="#FBFAFF"/>
<path d="M103.776 98.1517H104.577V99.5002H103.776V98.1517Z" fill="#EBEBEB"/>
<path d="M102.709 98.1517H103.51V99.5002H102.709V98.1517Z" fill="#EBEBEB"/>
<path d="M103.776 99.7431H104.577V101.74H103.776V99.7431Z" fill="#EBEBEB"/>
<path d="M102.709 99.7431H103.51V101.74H102.709V99.7431Z" fill="#EBEBEB"/>
<path d="M76.2022 93.6107H84.0451L87.9714 98.6233H79.1945L76.2022 93.6107Z" fill="#C7C7C7"/>
<path d="M82.1439 97.7656V103.869H86.5085V97.7656L84.3262 95.0354L82.1439 97.7656Z" fill="#DBDBDB"/>
<path d="M82.144 97.761H78.7085L82.144 103.87V97.761Z" fill="#C7C7C7"/>
<path d="M83.1969 97.8611H85.6794V102.049H83.1969V97.8611Z" fill="#FBFAFF"/>
<path d="M84.574 98.1517H85.3745V99.5002H84.574V98.1517Z" fill="#EBEBEB"/>
<path d="M83.5019 98.1517H84.3024V99.5002H83.5019V98.1517Z" fill="#EBEBEB"/>
<path d="M84.574 99.7431H85.3745V101.74H84.574V99.7431Z" fill="#EBEBEB"/>
<path d="M83.5019 99.7431H84.3024V101.74H83.5019V99.7431Z" fill="#EBEBEB"/>
<path d="M69.6981 85.9536H74.0627V91.7H69.6981V85.9536Z" fill="#DBDBDB"/>
<path d="M69.6979 85.9536H66.2672V86.878L69.6979 91.7V85.9536Z" fill="#C7C7C7"/>
<path d="M69.698 84H74.5534V85.9536H69.698V84Z" fill="#C7C7C7"/>
<path d="M65.8909 84H69.6981V85.9536H65.8909V84Z" fill="#A6A6A6"/>
<path d="M101.018 112.513H106.421V121.638H101.018V112.513Z" fill="#FBFAFF"/>
<path d="M104.015 113.147H105.754V116.087H104.015V113.147Z" fill="#EBEBEB"/>
<path d="M101.685 113.147H103.424V116.087H101.685V113.147Z" fill="#EBEBEB"/>
<path d="M104.015 116.616H105.754V120.971H104.015V116.616Z" fill="#EBEBEB"/>
<path d="M101.685 116.616H103.424V120.971H101.685V116.616Z" fill="#EBEBEB"/>
<path d="M80.9479 112.513H86.3513V121.638H80.9479V112.513Z" fill="#FBFAFF"/>
<path d="M83.9451 113.147H85.6843V116.087H83.9451V113.147Z" fill="#EBEBEB"/>
<path d="M81.615 113.147H83.3542V116.087H81.615V113.147Z" fill="#EBEBEB"/>
<path d="M83.9451 116.616H85.6843V120.971H83.9451V116.616Z" fill="#EBEBEB"/>
<path d="M81.615 116.616H83.3542V120.971H81.615V116.616Z" fill="#EBEBEB"/>
<path d="M101.018 125.192H106.421V134.317H101.018V125.192Z" fill="#FBFAFF"/>
<path d="M104.015 125.826H105.754V128.766H104.015V125.826Z" fill="#EBEBEB"/>
<path d="M101.685 125.826H103.424V128.766H101.685V125.826Z" fill="#EBEBEB"/>
<path d="M104.015 129.295H105.754V133.65H104.015V129.295Z" fill="#EBEBEB"/>
<path d="M101.685 129.295H103.424V133.65H101.685V129.295Z" fill="#EBEBEB"/>
<path d="M80.9479 125.192H86.3513V134.317H80.9479V125.192Z" fill="#FBFAFF"/>
<path d="M83.9451 125.826H85.6843V128.766H83.9451V125.826Z" fill="#EBEBEB"/>
<path d="M81.615 125.826H83.3542V128.766H81.615V125.826Z" fill="#EBEBEB"/>
<path d="M83.9451 129.295H85.6843V133.65H83.9451V129.295Z" fill="#EBEBEB"/>
<path d="M81.615 129.295H83.3542V133.65H81.615V129.295Z" fill="#EBEBEB"/>
<path d="M91.0114 112.513H96.4147V121.638H91.0114V112.513Z" fill="#FBFAFF"/>
<path d="M94.0083 113.147H95.7475V116.087H94.0083V113.147Z" fill="#EBEBEB"/>
<path d="M91.6736 113.147H93.4128V116.087H91.6736V113.147Z" fill="#EBEBEB"/>
<path d="M94.0083 116.616H95.7475V120.971H94.0083V116.616Z" fill="#EBEBEB"/>
<path d="M91.6736 116.616H93.4128V120.971H91.6736V116.616Z" fill="#EBEBEB"/>
<path d="M91.0114 125.254H96.4147V134.379H91.0114V125.254Z" fill="#FBFAFF"/>
<path d="M94.0083 125.883H95.7475V128.823H94.0083V125.883Z" fill="#EBEBEB"/>
<path d="M91.6736 125.883H93.4128V128.823H91.6736V125.883Z" fill="#EBEBEB"/>
<path d="M94.0083 129.357H95.7475V133.712H94.0083V129.357Z" fill="#EBEBEB"/>
<path d="M91.6736 129.357H93.4128V133.712H91.6736V129.357Z" fill="#EBEBEB"/>
<path d="M66.1531 121.638H60.7497V112.513H66.1531V121.638Z" fill="#FBFAFF"/>
<path d="M61.4168 113.147H63.1559V116.087H61.4168V113.147Z" fill="#EBEBEB"/>
<path d="M63.7515 113.147H65.4907V116.087H63.7515V113.147Z" fill="#EBEBEB"/>
<path d="M61.4168 116.616H63.1559V120.971H61.4168V116.616Z" fill="#EBEBEB"/>
<path d="M63.7515 116.616H65.4907V120.971H63.7515V116.616Z" fill="#EBEBEB"/>
<path d="M66.1531 107.534H60.7497V99.8098H66.1531V107.534Z" fill="#FBFAFF"/>
<path d="M61.4168 100.439H63.1559V103.379H61.4168V100.439Z" fill="#EBEBEB"/>
<path d="M63.7515 100.439H65.4907V103.379H63.7515V100.439Z" fill="#EBEBEB"/>
<path d="M61.4168 103.941H63.1559V106.881H61.4168V103.941Z" fill="#EBEBEB"/>
<path d="M63.7515 103.941H65.4907V106.881H63.7515V103.941Z" fill="#EBEBEB"/>
<path d="M66.9217 137.16L60.3701 137.191L60.314 125.294L66.8656 125.263L66.9217 137.16Z" fill="#FBFAFF"/>
<path d="M223.32 137.238L195.403 137.353L167.49 137.395L111.66 137.472L55.83 137.395L27.9174 137.353L0 137.238L27.9174 137.119L55.83 137.076L111.66 137L167.49 137.076L195.403 137.119L223.32 137.238Z" fill="#263238"/>
<path d="M64.3045 126.086L64.3129 127.868L62.9025 127.875L62.8941 126.093L64.3045 126.086Z" fill="#EBEBEB"/>
<path d="M66.1478 126.077L66.1562 127.859L64.7458 127.866L64.7374 126.084L66.1478 126.077Z" fill="#EBEBEB"/>
<path d="M65.123 134.339L62.145 134.353L62.1429 133.924L65.1209 133.91L65.123 134.339Z" fill="#EBEBEB"/>
<path d="M63.4228 125.178V126.96H62.0124V125.178H63.4228Z" fill="#EBEBEB"/>
<path d="M64.3094 128.336L64.3178 130.118L62.9074 130.125L62.899 128.343L64.3094 128.336Z" fill="#EBEBEB"/>
<path d="M66.1668 128.322L66.1752 130.104L64.7648 130.111L64.7564 128.329L66.1668 128.322Z" fill="#EBEBEB"/>
<path d="M62.4613 128.346L62.4697 130.128L61.0593 130.135L61.0509 128.353L62.4613 128.346Z" fill="#EBEBEB"/>
<path d="M64.3189 130.591L64.3273 132.373L62.9169 132.38L62.9085 130.598L64.3189 130.591Z" fill="#EBEBEB"/>
<path d="M66.1717 130.582L66.1801 132.364L64.7697 132.37L64.7613 130.588L66.1717 130.582Z" fill="#EBEBEB"/>
<path d="M62.471 130.601L62.4794 132.383L61.069 132.39L61.0607 130.608L62.471 130.601Z" fill="#EBEBEB"/>
<path d="M169.903 137.185H200.256L201.614 122.476H169.903V137.185Z" fill="#DBDBDB"/>
<path d="M169.913 122.457L159.011 108.811L150.329 122.457L151.687 137.166H169.913V122.457Z" fill="#C7C7C7"/>
<path d="M191.197 104.494H158.229L146.017 125.13H149.348L158.677 109.597L167.64 125.13H204.167L191.197 104.494Z" fill="#A6A6A6"/>
<path d="M192.174 127.937H196.977V134.798H192.174V127.937Z" fill="#FBFAFF"/>
<path d="M194.843 128.499H196.386V131.11H194.843V128.499Z" fill="#DBDBDB"/>
<path d="M192.77 128.499H194.314V131.11H192.77V128.499Z" fill="#DBDBDB"/>
<path d="M194.843 131.606H196.386V134.217H194.843V131.606Z" fill="#DBDBDB"/>
<path d="M192.77 131.606H194.314V134.217H192.77V131.606Z" fill="#DBDBDB"/>
<path d="M174.535 127.937H179.338V134.798H174.535V127.937Z" fill="#FBFAFF"/>
<path d="M177.203 128.499H178.747V131.11H177.203V128.499Z" fill="#DBDBDB"/>
<path d="M175.13 128.499H176.674V131.11H175.13V128.499Z" fill="#DBDBDB"/>
<path d="M177.203 131.606H178.747V134.217H177.203V131.606Z" fill="#DBDBDB"/>
<path d="M175.13 131.606H176.674V134.217H175.13V131.606Z" fill="#DBDBDB"/>
<path d="M183.326 127.57H188.62V137.185H183.326V127.57Z" fill="#FBFAFF"/>
<path d="M185.403 128.232H186.542V129.671H185.403V128.232Z" fill="#DBDBDB"/>
<path d="M183.907 128.232H185.046V129.671H183.907V128.232Z" fill="#DBDBDB"/>
<path d="M184.77 134.546H187.176V134.894H184.77V134.546Z" fill="#DBDBDB"/>
<path d="M186.9 128.232H188.039V129.671H186.9V128.232Z" fill="#DBDBDB"/>
<path d="M185.403 130.052H186.542V131.491H185.403V130.052Z" fill="#DBDBDB"/>
<path d="M183.907 130.052H185.046V131.491H183.907V130.052Z" fill="#DBDBDB"/>
<path d="M186.9 130.052H188.039V131.491H186.9V130.052Z" fill="#DBDBDB"/>
<path d="M185.403 131.873H186.542V133.312H185.403V131.873Z" fill="#DBDBDB"/>
<path d="M183.907 131.873H185.046V133.312H183.907V131.873Z" fill="#DBDBDB"/>
<path d="M186.9 131.873H188.039V133.312H186.9V131.873Z" fill="#DBDBDB"/>
<path d="M184.222 103.669H188.1V108.773H184.222V103.669Z" fill="#DBDBDB"/>
<path d="M184.222 103.669H181.172V104.489L184.222 108.773V103.669Z" fill="#C7C7C7"/>
<path d="M184.222 101.93H188.534V103.665H184.222V101.93Z" fill="#C7C7C7"/>
<path d="M180.839 101.93H184.222V103.665H180.839V101.93Z" fill="#A6A6A6"/>
<path d="M157.906 137.19H148.061L147.123 127.046H157.906V137.19Z" fill="#C7C7C7"/>
<path d="M157.905 127.046L162.77 124.849L162.661 137.19H157.905V127.046Z" fill="#DBDBDB"/>
<path d="M150.367 129.671H154.508V137.185H150.367V129.671Z" fill="#FBFAFF"/>
<path d="M151.992 130.186H152.883V131.31H151.992V130.186Z" fill="#DBDBDB"/>
<path d="M150.825 130.186H151.716V131.31H150.825V130.186Z" fill="#DBDBDB"/>
<path d="M151.497 134.617H153.379V134.889H151.497V134.617Z" fill="#DBDBDB"/>
<path d="M153.16 130.186H154.051V131.31H153.16V130.186Z" fill="#DBDBDB"/>
<path d="M163.514 124.344H149.21L144.588 127.861H158.32L163.514 124.344Z" fill="#A6A6A6"/>
<path d="M158.32 127.861H163.514V124.344L158.32 127.861Z" fill="#C7C7C7"/>
<path d="M161.393 119.203C161.393 119.688 161.249 120.163 160.979 120.567C160.71 120.97 160.326 121.285 159.877 121.47C159.429 121.656 158.935 121.704 158.459 121.609C157.983 121.514 157.546 121.28 157.203 120.936C156.86 120.593 156.626 120.155 156.532 119.679C156.438 119.202 156.487 118.709 156.674 118.261C156.86 117.812 157.175 117.429 157.58 117.16C157.984 116.891 158.459 116.748 158.944 116.749C159.594 116.75 160.217 117.009 160.676 117.469C161.135 117.929 161.393 118.553 161.393 119.203Z" fill="#FBFAFF"/>
<path d="M160.845 119.203C160.845 119.708 160.644 120.193 160.287 120.551C159.93 120.908 159.445 121.109 158.939 121.109C158.778 121.11 158.618 121.089 158.463 121.047C158.019 120.926 157.634 120.649 157.378 120.267C157.122 119.885 157.013 119.423 157.071 118.967C157.129 118.511 157.35 118.091 157.694 117.785C158.037 117.479 158.479 117.307 158.939 117.302C159.1 117.301 159.26 117.322 159.416 117.364C159.637 117.417 159.846 117.515 160.03 117.65C160.281 117.824 160.485 118.057 160.627 118.327C160.769 118.597 160.844 118.898 160.845 119.203Z" fill="#C7C7C7"/>
<path d="M159.206 121.442H158.677V116.925H159.206V121.442Z" fill="#FBFAFF"/>
<path d="M156.681 119.446V118.917H161.198V119.446H156.681Z" fill="#FBFAFF"/>
<path d="M143.878 137.19H159.216L160.264 125.845H143.878V137.19Z" fill="#8C4BF6"/>
<path opacity="0.2" d="M143.878 137.19H159.216L160.264 125.845H143.878V137.19Z" fill="black"/>
<path d="M143.878 125.845L135.468 115.315L128.773 125.845L129.817 137.19H143.878V125.845Z" fill="#8C4BF6"/>
<path d="M142.863 127.232H163.676L151.016 111.312H135.382L125.986 127.232H128.373L135.382 116.325L142.863 127.232Z" fill="#8C4BF6"/>
<path opacity="0.4" d="M142.863 127.232H163.676L151.016 111.312H135.382L125.986 127.232H128.373L135.382 116.325L142.863 127.232Z" fill="black"/>
<path d="M121.859 97.2321H126.195V102.94H121.859V97.2321Z" fill="#8C4BF6"/>
<path opacity="0.2" d="M121.859 97.2321H126.195V102.94H121.859V97.2321Z" fill="black"/>
<path d="M118.447 97.2321H121.859V102.94H118.447V97.2321Z" fill="#8C4BF6"/>
<path d="M121.859 95.288H126.681V97.2273H121.859V95.288Z" fill="#8C4BF6"/>
<path opacity="0.5" d="M121.859 95.288H126.681V97.2273H121.859V95.288Z" fill="black"/>
<path d="M118.076 95.288H121.859V97.2273H118.076V95.288Z" fill="#8C4BF6"/>
<path opacity="0.4" d="M118.076 95.288H121.859V97.2273H118.076V95.288Z" fill="black"/>
<path d="M106.621 137.176H140.571L142.091 120.723H106.621V137.176Z" fill="#8C4BF6"/>
<path opacity="0.2" d="M106.621 137.176H140.571L142.091 120.723H106.621V137.176Z" fill="black"/>
<path d="M106.621 120.723L94.4278 105.451L84.717 120.723L86.237 137.176H106.621V120.723Z" fill="#8C4BF6"/>
<path d="M94.5754 106.419L84.5501 121.924H81.0479L94.2752 100.606H130.388L148.685 123.691H104.577L94.5754 106.419Z" fill="#8C4BF6"/>
<path opacity="0.5" d="M94.5754 106.419L84.5501 121.924H81.0479L94.2752 100.606H130.388L148.685 123.691H104.577L94.5754 106.419Z" fill="black"/>
<path d="M97.5963 123.034H92.2263V115.358H97.5963V123.034Z" fill="#FBFAFF"/>
<path d="M92.8887 115.982H94.6183V118.903H92.8887V115.982Z" fill="#8C4BF6"/>
<path d="M95.2044 115.982H96.934V118.903H95.2044V115.982Z" fill="#8C4BF6"/>
<path d="M92.8887 119.46H94.6183V122.381H92.8887V119.46Z" fill="#8C4BF6"/>
<path d="M95.2044 119.46H96.934V122.381H95.2044V119.46Z" fill="#8C4BF6"/>
<path d="M131.536 126.827H136.906V134.503H131.536V126.827Z" fill="#FBFAFF"/>
<path d="M134.515 127.456H136.244V130.376H134.515V127.456Z" fill="#8C4BF6"/>
<path d="M132.194 127.456H133.924V130.376H132.194V127.456Z" fill="#8C4BF6"/>
<path d="M134.515 130.934H136.244V133.855H134.515V130.934Z" fill="#8C4BF6"/>
<path d="M132.194 130.934H133.924V133.855H132.194V130.934Z" fill="#8C4BF6"/>
<path d="M121.669 126.827H127.039V134.503H121.669V126.827Z" fill="#FBFAFF"/>
<path d="M124.651 127.456H126.381V130.376H124.651V127.456Z" fill="#8C4BF6"/>
<path d="M122.331 127.456H124.061V130.376H122.331V127.456Z" fill="#8C4BF6"/>
<path d="M124.651 130.934H126.381V133.855H124.651V130.934Z" fill="#8C4BF6"/>
<path d="M122.331 130.934H124.061V133.855H122.331V130.934Z" fill="#8C4BF6"/>
<path d="M111.805 126.827H117.175V134.503H111.805V126.827Z" fill="#FBFAFF"/>
<path d="M114.783 127.456H116.513V130.376H114.783V127.456Z" fill="#8C4BF6"/>
<path d="M112.468 127.456H114.197V130.376H112.468V127.456Z" fill="#8C4BF6"/>
<path d="M114.783 130.934H116.513V133.855H114.783V130.934Z" fill="#8C4BF6"/>
<path d="M112.468 130.934H114.197V133.855H112.468V130.934Z" fill="#8C4BF6"/>
<path d="M97.8726 137.171H91.9499V126.417H97.8726V137.171Z" fill="#FBFAFF"/>
<path d="M94.2705 127.16H95.5475V128.771H94.2705V127.16Z" fill="#8C4BF6"/>
<path d="M95.9429 127.16H97.2199V128.771H95.9429V127.16Z" fill="#8C4BF6"/>
<path d="M96.2575 134.612H93.5654V134.222H96.2575V134.612Z" fill="#8C4BF6"/>
<path d="M92.6028 127.16H93.8798V128.771H92.6028V127.16Z" fill="#8C4BF6"/>
<path d="M94.2705 129.195H95.5475V130.805H94.2705V129.195Z" fill="#8C4BF6"/>
<path d="M95.9429 129.195H97.2199V130.805H95.9429V129.195Z" fill="#8C4BF6"/>
<path d="M92.6028 129.195H93.8798V130.805H92.6028V129.195Z" fill="#8C4BF6"/>
<path d="M94.2705 131.229H95.5475V132.84H94.2705V131.229Z" fill="#8C4BF6"/>
<path d="M95.9429 131.229H97.2199V132.84H95.9429V131.229Z" fill="#8C4BF6"/>
<path d="M92.6028 131.229H93.8798V132.84H92.6028V131.229Z" fill="#8C4BF6"/>
<path d="M116.408 106.133H124.203L128.211 111.136H119.386L116.408 106.133Z" fill="#8C4BF6"/>
<path opacity="0.4" d="M116.408 106.133H124.203L128.211 111.136H119.386L116.408 106.133Z" fill="black"/>
<path d="M122.312 110.259V116.325H126.653V110.259L124.48 107.548L122.312 110.259Z" fill="#8C4BF6"/>
<path opacity="0.2" d="M122.312 110.259V116.325H126.653V110.259L124.48 107.548L122.312 110.259Z" fill="black"/>
<path d="M122.312 110.259H118.9L122.312 116.325V110.259Z" fill="#8C4BF6"/>
<path d="M123.365 110.354H125.828V114.514H123.365V110.354Z" fill="#FBFAFF"/>
<path d="M124.727 110.64H125.523V111.979H124.727V110.64Z" fill="#8C4BF6"/>
<path d="M123.665 110.64H124.461V111.979H123.665V110.64Z" fill="#8C4BF6"/>
<path d="M124.727 112.227H125.523V114.214H124.727V112.227Z" fill="#8C4BF6"/>
<path d="M123.665 112.227H124.461V114.214H123.665V112.227Z" fill="#8C4BF6"/>
<path d="M112.981 67.6073C115.103 69.4119 116.682 71.7707 117.541 74.4205C118.401 77.0702 118.506 79.9067 117.847 82.6132C117.188 85.3197 115.789 87.7896 113.808 89.7473C111.826 91.705 109.339 93.0734 106.625 93.6998L103.289 100.528L100.054 93.7474C97.6347 93.2291 95.3828 92.1154 93.5023 90.5073C91.9987 89.228 90.7618 87.6651 89.8622 85.9077C88.9626 84.1504 88.4179 82.233 88.2593 80.2652C87.9389 76.291 89.2104 72.3523 91.7941 69.3155C94.3778 66.2788 98.062 64.3928 102.036 64.0725C106.01 63.7521 109.949 65.0237 112.986 67.6073H112.981Z" fill="white"/>
<path d="M112.981 67.6073C115.103 69.4124 116.684 71.7688 117.551 74.4163C117.768 75.0748 117.943 75.7464 118.075 76.4271C118.189 77.1113 118.26 77.802 118.289 78.4951C118.354 79.8849 118.224 81.2771 117.903 82.631C117.588 83.9881 117.086 85.295 116.412 86.5143C116.071 87.1222 115.687 87.705 115.263 88.2583C114.854 88.823 114.402 89.355 113.91 89.8498C111.923 91.8512 109.416 93.2573 106.672 93.9094L106.82 93.7951L103.523 100.642L103.285 101.142L103.046 100.642L99.7872 93.8761L99.9873 94.0333C97.1479 93.4178 94.5443 92.002 92.4843 89.9532C90.4243 87.9045 88.9942 85.3086 88.3631 82.4726C87.7321 79.6367 87.9265 76.6793 88.9234 73.9504C89.9202 71.2214 91.6779 68.8351 93.9883 67.0737C95.8211 65.7 97.9373 64.7526 100.183 64.3005C102.427 63.8461 104.745 63.9077 106.963 64.4806C109.18 65.0534 111.238 66.1226 112.981 67.6073ZM112.981 67.6073C111.25 66.1291 109.202 65.0682 106.995 64.5064C104.789 63.9446 102.483 63.8969 100.256 64.3669C98.0279 64.8369 95.9379 65.8121 94.1466 67.2174C92.3554 68.6227 90.9107 70.4205 89.9239 72.4723C88.94 74.5007 88.4316 76.7267 88.4373 78.9811C88.465 81.2246 88.9787 83.4354 89.943 85.4613C90.9205 87.4772 92.3428 89.2448 94.1027 90.6312C95.8658 92.0109 97.9157 92.978 100.102 93.4615L100.245 93.4949L100.302 93.6235L103.518 100.413H103.042L106.429 93.6092L106.472 93.5139H106.572C109.266 92.9244 111.741 91.5942 113.72 89.6735C114.211 89.1942 114.665 88.6781 115.078 88.1296C115.504 87.5912 115.891 87.0227 116.236 86.4286C116.926 85.2366 117.446 83.9534 117.779 82.6167C118.125 81.2795 118.273 79.8989 118.218 78.5189C118.193 77.8295 118.128 77.1422 118.022 76.4605C117.893 75.782 117.723 75.1121 117.513 74.4545C116.663 71.7973 115.095 69.4273 112.981 67.6073Z" fill="#263238"/>
<path d="M107.325 75.2407C107.159 75.0709 106.973 74.9206 106.773 74.7928C106.507 74.6206 106.228 74.4692 105.939 74.3401C105.239 74.0228 104.489 73.8293 103.723 73.7684V78.0567L104.119 78.1377C104.801 78.3006 105.474 78.501 106.134 78.7381C106.678 78.9292 107.19 79.2006 107.654 79.5434C108.057 79.8539 108.384 80.2534 108.607 80.7108C108.846 81.2402 108.962 81.8169 108.945 82.3975C108.964 83.0423 108.831 83.6824 108.555 84.2654C108.3 84.777 107.927 85.2211 107.468 85.5614C106.982 85.916 106.434 86.1777 105.853 86.3333C105.21 86.5104 104.547 86.6049 103.88 86.6144V88.7872H102.808V86.5716C101.832 86.5127 100.87 86.3154 99.9493 85.9855C99.0627 85.6665 98.2327 85.2081 97.4906 84.6275L98.5436 82.6453C98.7429 82.8497 98.9652 83.0304 99.206 83.1837C99.5286 83.394 99.8662 83.5803 100.216 83.7412C100.628 83.9312 101.053 84.0905 101.488 84.2177C101.955 84.356 102.434 84.4533 102.918 84.5084V80.22C102.837 80.1962 102.746 80.1676 102.66 80.1485C102.573 80.1304 102.487 80.1065 102.403 80.077C101.757 79.9099 101.121 79.7063 100.497 79.4671C100.007 79.2844 99.5493 79.022 99.144 78.6905C98.7952 78.4028 98.5165 78.0394 98.3292 77.6279C98.1284 77.1604 98.0324 76.6546 98.0481 76.146C98.035 75.5288 98.1552 74.9161 98.4007 74.3497C98.6296 73.8324 98.9677 73.3708 99.3918 72.9964C99.8301 72.6081 100.338 72.3058 100.888 72.1054C101.501 71.8821 102.143 71.7473 102.794 71.7052V69.6134H103.866V71.7052C104.717 71.7485 105.556 71.9303 106.349 72.2436C107.061 72.5212 107.735 72.8878 108.355 73.3348L107.325 75.2407ZM100.502 75.7744C100.485 76.0258 100.532 76.2774 100.639 76.5057C100.745 76.734 100.908 76.9316 101.112 77.0799C101.68 77.4374 102.306 77.6953 102.961 77.8423V73.7684C102.291 73.752 101.635 73.9599 101.098 74.3592C100.899 74.536 100.743 74.7547 100.64 74.9995C100.537 75.2444 100.49 75.509 100.502 75.7744ZM106.491 82.6405C106.504 82.368 106.444 82.097 106.316 81.8557C106.189 81.6144 105.999 81.4116 105.767 81.2683C105.135 80.8922 104.451 80.6097 103.737 80.4296V84.5227C104.448 84.5574 105.155 84.3923 105.777 84.0462C106.009 83.8952 106.197 83.6858 106.322 83.4391C106.448 83.1924 106.506 82.917 106.491 82.6405Z" fill="#8C4BF6"/>
</svg>
