<svg width="6" height="12" viewBox="0 0 6 12" fill="none" xmlns="http://www.w3.org/2000/svg">
<path fill-rule="evenodd" clip-rule="evenodd" d="M5.32523 0.953307C5.37511 0.996059 5.41608 1.04822 5.44579 1.10681C5.4755 1.16541 5.49338 1.22928 5.49839 1.29478C5.50341 1.36029 5.49546 1.42614 5.47502 1.48857C5.45457 1.551 5.42202 1.60879 5.37923 1.65864L1.65856 5.99997L5.37923 10.3413C5.4245 10.3907 5.45936 10.4488 5.48176 10.512C5.50415 10.5751 5.51361 10.6422 5.50958 10.7091C5.50554 10.776 5.4881 10.8414 5.45828 10.9014C5.42845 10.9615 5.38687 11.0149 5.33599 11.0585C5.28511 11.1022 5.22597 11.1351 5.1621 11.1554C5.09823 11.1758 5.03092 11.183 4.96417 11.1768C4.89743 11.1706 4.83262 11.1511 4.77359 11.1193C4.71456 11.0875 4.66252 11.0442 4.62056 10.992L0.620562 6.32531C0.54292 6.23469 0.500244 6.1193 0.500244 5.99997C0.500244 5.88065 0.54292 5.76525 0.620562 5.67464L4.62056 1.00797C4.70688 0.907431 4.82959 0.845267 4.96172 0.835142C5.09385 0.825017 5.22459 0.867758 5.32523 0.953974" fill="#1C252E"/>
</svg>
