<svg width="111" height="97" viewBox="0 0 111 97" fill="none" xmlns="http://www.w3.org/2000/svg">
<path opacity="0.08" d="M55.5 96.832C86.1518 96.832 111 75.3417 111 48.832C111 22.3224 86.1518 0.832031 55.5 0.832031C24.8482 0.832031 0 22.3224 0 48.832C0 75.3417 24.8482 96.832 55.5 96.832Z" fill="url(#paint0_linear_8_718)"/>
<path d="M77.7005 34.5657C77.7005 33.717 77.3106 32.9031 76.6168 32.303C75.9229 31.7029 74.9818 31.3657 74.0004 31.3657H22.2C21.2187 31.3657 20.2776 31.7029 19.5837 32.303C18.8898 32.9031 18.5 33.717 18.5 34.5657V62.2993C18.5 63.148 18.8898 63.9619 19.5837 64.5621C20.2776 65.1622 21.2187 65.4993 22.2 65.4993H74.0004C74.9818 65.4993 75.9229 65.1622 76.6168 64.5621C77.3106 63.9619 77.7005 63.148 77.7005 62.2993V34.5657Z" fill="url(#paint1_linear_8_718)"/>
<path d="M37.5247 46.4458L19.5117 64.4843C19.8555 64.8038 20.2716 65.0586 20.7342 65.2329C21.1967 65.4073 21.6958 65.4974 22.2004 65.4977H74.0008C74.5054 65.4974 75.0045 65.4073 75.4671 65.2329C75.9296 65.0586 76.3457 64.8038 76.6895 64.4843L58.6827 46.4458H37.5247Z" fill="#FA541C"/>
<path d="M76.5623 32.266C75.8755 31.6889 74.9558 31.366 73.9982 31.3657H22.1978C21.2402 31.366 20.3205 31.6889 19.6337 32.266L48.098 54.8326L76.5623 32.266Z" fill="url(#paint2_linear_8_718)"/>
<path opacity="0.48" d="M76.5623 32.266C75.8755 31.6889 74.9558 31.366 73.9982 31.3657H22.1978C21.2402 31.366 20.3205 31.6889 19.6337 32.266L48.098 54.8326L76.5623 32.266Z" fill="#FEE9D1"/>
<path d="M75.2329 76.1657C84.7691 76.1657 92.4997 69.4798 92.4997 61.2323C92.4997 52.9848 84.7691 46.2988 75.2329 46.2988C65.6967 46.2988 57.9661 52.9848 57.9661 61.2323C57.9661 69.4798 65.6967 76.1657 75.2329 76.1657Z" fill="#8E33FF"/>
<path d="M75.2347 46.2987C71.5608 46.2984 67.9837 47.3172 65.0288 49.2054C62.582 52.0781 61.4071 55.6143 61.7173 59.1722C62.0274 62.7301 63.8021 66.0739 66.7193 68.5969C69.6364 71.1198 73.5028 72.6547 77.6166 72.923C81.7304 73.1912 85.8191 72.1751 89.1407 70.0589C91.0338 67.8364 92.1766 65.203 92.4418 62.4521C92.707 59.7011 92.0841 56.9404 90.6427 54.4775C89.2012 52.0145 86.9976 49.9459 84.2773 48.5019C81.5569 47.0579 78.4266 46.2952 75.2347 46.2987Z" fill="#C684FF"/>
<path d="M69.0679 66.5657L74.0013 70.8324L85.1014 53.7656L62.9012 61.2324L66.6012 64.4324" fill="#5119B7"/>
<path d="M69.0662 66.5656L67.8329 68.6989L66.5995 64.4322L76.4651 60.1655L69.0662 66.5656Z" fill="#8E33FF"/>
<path d="M77.6971 39.8988C83.1463 39.8988 87.5638 36.0783 87.5638 31.3654C87.5638 26.6526 83.1463 22.832 77.6971 22.832C72.2478 22.832 67.8303 26.6526 67.8303 31.3654C67.8303 36.0783 72.2478 39.8988 77.6971 39.8988Z" fill="#B3200E"/>
<path d="M77.696 22.832C75.6821 22.8308 73.7166 23.3651 72.0658 24.3627C70.7431 26.005 70.1305 27.9972 70.335 29.9907C70.5395 31.9843 71.5482 33.8521 73.1845 35.2673C74.8208 36.6825 76.9805 37.5548 79.2855 37.7317C81.5905 37.9086 83.894 37.3787 85.7929 36.2348C86.8232 34.9557 87.4284 33.4569 87.5427 31.9012C87.6571 30.3455 87.2763 28.7925 86.4416 27.4109C85.6069 26.0293 84.3504 24.8719 82.8085 24.0647C81.2666 23.2574 79.4984 22.8311 77.696 22.832Z" fill="#FA541C"/>
<path d="M78.9333 36.7002H76.4666V29.6751L76.1053 29.9876L74.3613 28.4794L76.828 26.346C77.0005 26.1969 77.2202 26.0953 77.4595 26.0542C77.6987 26.013 77.9466 26.0342 78.1719 26.1149C78.3973 26.1956 78.5899 26.3323 78.7254 26.5076C78.8609 26.683 78.9333 26.8892 78.9333 27.1001V36.7002Z" fill="#FEE9D1"/>
<defs>
<linearGradient id="paint0_linear_8_718" x1="0" y1="0.832031" x2="94.9971" y2="110.672" gradientUnits="userSpaceOnUse">
<stop stop-color="#FDAB76"/>
<stop offset="1" stop-color="#FA541C"/>
</linearGradient>
<linearGradient id="paint1_linear_8_718" x1="18.5" y1="31.3657" x2="48.0407" y2="82.6004" gradientUnits="userSpaceOnUse">
<stop stop-color="#FDAB76"/>
<stop offset="1" stop-color="#FA541C"/>
</linearGradient>
<linearGradient id="paint2_linear_8_718" x1="19.6337" y1="31.3657" x2="36.1705" y2="71.4827" gradientUnits="userSpaceOnUse">
<stop stop-color="#FDAB76"/>
<stop offset="1" stop-color="#FA541C"/>
</linearGradient>
</defs>
</svg>
