<svg width="140" height="28" viewBox="0 0 140 28" fill="none" xmlns="http://www.w3.org/2000/svg">
<path d="M11.7072 18.5918C11.7072 18.24 12.0584 17.9925 12.3966 18.106L16.0364 19.3276C16.2475 19.3985 16.3894 19.5938 16.3894 19.8134V26.0377C16.3894 26.2469 16.2605 26.4351 16.0635 26.5135L12.4238 27.9621C12.0811 28.0985 11.7072 27.8502 11.7072 27.4863V18.5918Z" fill="#161C24"/>
<path fill-rule="evenodd" clip-rule="evenodd" d="M28.0937 14.065C28.0937 19.5543 24.9533 24.3092 20.373 26.6264C19.5267 27.0545 18.6312 27.3994 17.6973 27.6504V17.4903C17.6973 15.4823 16.0716 13.8545 14.0661 13.8545C12.0607 13.8545 10.4349 15.4823 10.4349 17.4903V27.6606C9.50132 27.4125 8.60592 27.0707 7.75932 26.6456C3.15819 24.3356 0 19.5696 0 14.065C0 6.29712 6.28908 0 14.047 0C21.805 0 28.0937 6.29712 28.0937 14.065ZM25.4181 14.065C25.4181 18.007 23.4161 21.4846 20.373 23.5287V17.4903C20.373 14.0027 17.5493 11.1754 14.0661 11.1754C12.7107 11.1754 11.4552 11.6035 10.4271 12.332V3.2681C11.5642 2.88606 12.7814 2.67905 14.047 2.67905C20.3272 2.67905 25.4181 7.77667 25.4181 14.065ZM7.77052 4.56905C4.70007 6.60779 2.67565 10.0996 2.67565 14.065C2.67565 18.0234 4.69445 21.5137 7.75932 23.5542V17.4903C7.75932 17.3629 7.76308 17.2363 7.77052 17.1108V4.56905Z" fill="#161C24"/>
<path fill-rule="evenodd" clip-rule="evenodd" d="M91.3521 22.5736V5.02478H92.4129V15.4195C92.7229 14.8471 93.1917 14.3609 93.8195 13.9608C94.5113 13.5144 95.303 13.2912 96.1946 13.2912C97.0401 13.2912 97.7242 13.5452 98.2469 14.0532C98.7696 14.5458 99.0386 15.1923 99.054 15.9928V22.5736H97.9471V16.293C97.9318 15.708 97.7473 15.2231 97.3937 14.8383C97.0401 14.4534 96.5251 14.2533 95.8487 14.2379C95.2492 14.2379 94.6881 14.3919 94.1654 14.6997C93.6427 15.0076 93.22 15.4232 92.8971 15.9466C92.5897 16.47 92.4359 17.0627 92.4359 17.7246V22.5736H91.3521ZM102.028 15.6043C101.613 16.3279 101.406 17.1283 101.406 18.0058C101.406 18.9294 101.613 19.753 102.028 20.4765C102.459 21.1846 103.035 21.7464 103.758 22.1621C104.48 22.5623 105.303 22.7624 106.225 22.7624C107.132 22.7624 107.947 22.5546 108.669 22.139C109.407 21.708 109.984 21.1307 110.399 20.4072C110.814 19.6837 111.021 18.8832 111.021 18.0058C111.021 17.1283 110.814 16.3279 110.399 15.6043C109.984 14.8808 109.415 14.3113 108.692 13.8956C107.97 13.4646 107.147 13.2491 106.225 13.2491C105.318 13.2491 104.495 13.4646 103.758 13.8956C103.035 14.3113 102.459 14.8808 102.028 15.6043ZM102.974 19.9685C102.651 19.3835 102.489 18.737 102.489 18.0289C102.489 17.3669 102.651 16.7435 102.974 16.1585C103.296 15.5736 103.735 15.1041 104.288 14.75C104.857 14.3805 105.495 14.1958 106.202 14.1958C106.894 14.1958 107.516 14.3729 108.07 14.7269C108.639 15.0656 109.084 15.5274 109.407 16.1123C109.745 16.6819 109.914 17.3207 109.914 18.0289C109.914 18.737 109.745 19.3835 109.407 19.9685C109.084 20.538 108.639 20.9922 108.07 21.3308C107.516 21.6695 106.894 21.8388 106.202 21.8388C105.51 21.8388 104.88 21.6695 104.311 21.3308C103.758 20.9922 103.312 20.538 102.974 19.9685ZM126.211 22.7614C125.689 22.7614 125.143 22.669 124.574 22.4843C124.005 22.2842 123.544 21.9686 123.19 21.5376L123.698 20.8218C124.005 21.1451 124.366 21.4068 124.781 21.6069C125.212 21.7916 125.665 21.884 126.142 21.884C126.496 21.884 126.826 21.8378 127.134 21.7454C127.456 21.6377 127.718 21.4606 127.918 21.2143C128.117 20.968 128.217 20.6371 128.217 20.2214C128.217 19.7904 128.094 19.4594 127.848 19.2285C127.618 18.9976 127.318 18.8129 126.949 18.6744C126.596 18.5204 126.219 18.3819 125.819 18.2587C125.158 18.0432 124.612 17.7507 124.182 17.3813C123.767 17.0118 123.559 16.4885 123.559 15.8111C123.559 15.3185 123.675 14.8875 123.905 14.5181C124.151 14.1486 124.482 13.8638 124.897 13.6637C125.312 13.4482 125.781 13.3404 126.303 13.3404C126.78 13.3404 127.249 13.4174 127.71 13.5714C128.187 13.7253 128.617 13.987 129.001 14.3564L128.517 15.1184C128.271 14.7798 127.941 14.5489 127.526 14.4257C127.126 14.3026 126.772 14.2333 126.465 14.2179C126.203 14.2179 125.927 14.2718 125.635 14.3795C125.358 14.4873 125.12 14.6489 124.92 14.8644C124.735 15.0645 124.643 15.3339 124.643 15.6726C124.643 16.0266 124.743 16.3191 124.943 16.55C125.143 16.7655 125.396 16.9426 125.704 17.0811C126.027 17.2197 126.357 17.3505 126.695 17.4737C127.141 17.6122 127.556 17.7815 127.941 17.9817C128.34 18.1664 128.663 18.4204 128.909 18.7436C129.17 19.0515 129.301 19.4671 129.301 19.9905C129.301 20.5139 129.186 20.9911 128.955 21.4221C128.725 21.8378 128.379 22.1687 127.918 22.415C127.472 22.6459 126.903 22.7614 126.211 22.7614ZM116.21 22.8183C115.365 22.8183 114.688 22.572 114.181 22.0794C113.674 21.5714 113.405 20.9172 113.374 20.1167V13.5359H114.458V19.7935C114.489 20.3784 114.673 20.8633 115.011 21.2482C115.365 21.633 115.887 21.8408 116.579 21.8716C117.163 21.8716 117.709 21.7177 118.216 21.4098C118.724 21.1019 119.131 20.6863 119.439 20.1629C119.761 19.6241 119.923 19.0161 119.923 18.3387V13.5359H121.007V22.5643H120.038L119.961 20.6559C119.799 20.9995 119.563 21.3201 119.254 21.6176C118.87 21.9871 118.409 22.2795 117.871 22.495C117.348 22.7106 116.794 22.8183 116.21 22.8183ZM81.5784 14.0877L81.3522 12.4813H78.4236V22.5718H81.6519V18.4617C81.6519 17.7382 81.7519 17.0994 81.9517 16.5452C82.1516 15.991 82.436 15.5523 82.8049 15.229C83.1739 14.9058 83.6043 14.7441 84.0962 14.7441C84.6189 14.7441 84.9879 14.8827 85.2031 15.1598C85.4337 15.4215 85.5567 15.7755 85.572 16.2219V22.5718H88.8004V15.0212C88.785 14.1284 88.4545 13.4049 87.8088 12.8507C87.1785 12.2811 86.3868 11.9964 85.4337 11.9964C84.4959 11.9964 83.7042 12.1965 83.0586 12.5967C82.4242 12.9748 81.9308 13.4718 81.5784 14.0877ZM58.7593 22.8539C58.1597 22.8539 57.5679 22.7461 56.9837 22.5306C56.4595 22.3178 56.0137 22.0266 55.6462 21.657V27.4258H52.441V12.2553H55.2081L55.4915 13.4614C55.9947 13.0435 56.5536 12.6953 57.1682 12.4169C57.8138 12.1244 58.5594 11.9782 59.4049 11.9782C60.3427 11.9782 61.1805 12.2014 61.9184 12.6478C62.6563 13.0788 63.2328 13.71 63.6479 14.5412C64.0783 15.3571 64.2935 16.3423 64.2935 17.4968C64.2935 18.636 64.0552 19.6058 63.5787 20.4063C63.1021 21.2067 62.4488 21.8148 61.6186 22.2304C60.7885 22.646 59.8354 22.8539 58.7593 22.8539ZM58.1136 20.3139C58.6363 20.3139 59.1128 20.1984 59.5433 19.9675C59.9891 19.7366 60.3427 19.4134 60.604 18.9977C60.8807 18.5667 61.0191 18.0818 61.0191 17.543C61.0191 16.9735 60.8961 16.4809 60.6501 16.0652C60.4195 15.6342 60.0967 15.3032 59.6816 15.0723C59.2819 14.826 58.8361 14.7029 58.3442 14.7029C57.9137 14.7029 57.5294 14.7645 57.1912 14.8876C56.8684 14.9954 56.5763 15.1647 56.315 15.3956C56.069 15.6111 55.8538 15.8882 55.6693 16.2269V18.6976C55.7923 19.0208 55.9691 19.3056 56.1997 19.5519C56.4303 19.7982 56.707 19.9906 57.0298 20.1292C57.368 20.2523 57.7293 20.3139 58.1136 20.3139ZM34.2648 10.7744C33.819 11.8212 33.5961 12.9295 33.5961 14.0995C33.5961 15.3002 33.819 16.4239 34.2648 17.4707C34.7106 18.5174 35.3255 19.4411 36.1095 20.2415C36.9089 21.0266 37.8313 21.6424 38.8767 22.0888C39.922 22.5352 41.0443 22.7584 42.2434 22.7584C43.4271 22.7584 44.5416 22.5352 45.587 22.0888C46.6323 21.6424 47.5547 21.0266 48.3541 20.2415C49.1689 19.4411 49.7992 18.5174 50.245 17.4707C50.7062 16.4239 50.9368 15.3002 50.9368 14.0995C50.9368 12.9295 50.7062 11.8212 50.245 10.7744C49.7992 9.72763 49.1689 8.80401 48.3541 8.00354C47.5547 7.18767 46.6323 6.54883 45.587 6.08702C44.5416 5.62521 43.4271 5.3943 42.2434 5.3943C41.0443 5.3943 39.922 5.62521 38.8767 6.08702C37.8313 6.54883 36.9089 7.18767 36.1095 8.00354C35.3255 8.80401 34.7106 9.72763 34.2648 10.7744ZM37.447 16.2238C37.1857 15.5619 37.055 14.8537 37.055 14.0995C37.055 13.3298 37.1857 12.614 37.447 11.952C37.7083 11.2901 38.0773 10.7128 38.5538 10.2202C39.0304 9.71224 39.5838 9.3197 40.2141 9.04261C40.8444 8.76553 41.5285 8.62698 42.2664 8.62698C43.0043 8.62698 43.6884 8.76553 44.3187 9.04261C44.949 9.3197 45.4947 9.71224 45.9559 10.2202C46.4325 10.7128 46.8014 11.2901 47.0628 11.952C47.3395 12.614 47.4778 13.3298 47.4778 14.0995C47.4778 14.8537 47.3472 15.5619 47.0858 16.2238C46.8245 16.8703 46.4632 17.4476 46.002 17.9556C45.5409 18.4482 44.9951 18.833 44.3648 19.1101C43.7499 19.3872 43.0812 19.5257 42.3587 19.5257C41.6054 19.5257 40.9059 19.3872 40.2602 19.1101C39.63 18.833 39.0688 18.4482 38.5769 17.9556C38.1003 17.4476 37.7237 16.8703 37.447 16.2238ZM67.1324 21.118C67.8208 21.8117 68.7531 22.3385 69.9292 22.6986C70.4584 22.8606 71.044 22.9433 71.686 22.9467C72.3427 22.9546 72.9733 22.89 73.5777 22.7532C74.6275 22.4995 75.5319 22.0047 75.9676 21.7182L75.3911 20.5637L74.8147 19.3794C74.1809 19.6983 73.4514 19.9144 72.9119 20.0415C72.6848 20.094 72.4519 20.14 72.32 20.1609L72.3201 20.1619C72.1532 20.1865 71.9871 20.2029 71.8218 20.2115C71.4772 20.2348 71.1358 20.1946 70.7976 20.0911C70.3272 19.9471 69.9323 19.7135 69.613 19.3904C69.4076 19.1826 69.2478 18.9454 69.1335 18.6789L76.8728 18.5948C77.0712 16.9975 76.8433 15.6641 76.1892 14.5946C75.5544 13.5149 74.546 12.7635 73.164 12.3405C72.135 12.0254 71.1295 11.9752 70.1477 12.1897C69.1704 12.3895 68.3127 12.803 67.5747 13.4302C66.8366 14.0574 66.3193 14.8568 66.0226 15.8284C65.7125 16.8442 65.6515 17.8074 65.8396 18.7181C66.0277 19.6289 66.4587 20.4288 67.1324 21.118ZM69.0641 16.7798L73.7319 16.6457C73.7194 16.2528 73.6077 15.8798 73.3969 15.5266C73.1928 15.1421 72.7894 14.8576 72.1866 14.6731C71.7309 14.5336 71.2929 14.5202 70.8726 14.633C70.4716 14.7356 70.1148 14.9564 69.8023 15.2953C69.5091 15.6241 69.2815 16.0534 69.1197 16.5834C69.0995 16.6496 69.081 16.7151 69.0641 16.7798ZM133.73 22.7871C132.858 22.4417 132.162 21.9426 131.643 21.29C131.124 20.6373 130.802 19.9053 130.676 19.094C130.57 18.2739 130.681 17.4488 131.009 16.6186C131.331 15.8027 131.826 15.1377 132.492 14.6235C133.158 14.1093 133.906 13.7849 134.736 13.6502C135.581 13.5213 136.417 13.621 137.247 13.9495C138.247 14.3459 138.967 14.9707 139.407 15.8237C139.862 16.6825 140.052 17.6436 139.979 18.7073L131.726 18.6379C131.73 18.724 131.736 18.8104 131.746 18.897C131.831 19.5598 132.073 20.1607 132.472 20.6994C132.871 21.2382 133.413 21.6435 134.099 21.9153C134.557 22.0965 135.027 22.1834 135.509 22.1759C135.64 22.1754 135.769 22.17 135.896 22.1597C136.25 22.1312 136.588 22.0958 136.909 21.9915C137.566 21.7872 138.371 21.379 139.05 20.6272L139.71 21.3616C139.27 21.9003 137.657 23.0509 135.896 23.1097C135.745 23.1183 135.592 23.1175 135.435 23.1152C134.842 23.1117 134.273 23.0024 133.73 22.7871ZM132.012 16.9664C131.905 17.238 131.827 17.512 131.78 17.7886L138.916 17.825C138.87 17.2343 138.698 16.6657 138.398 16.1191C138.076 15.5115 137.558 15.066 136.843 14.7829C136.2 14.528 135.558 14.4561 134.919 14.5672C134.28 14.6782 133.699 14.9362 133.175 15.3413C132.666 15.7519 132.278 16.2937 132.012 16.9664Z" fill="#161C24"/>
</svg>
